<?xml version="1.0" encoding="UTF-8" standalone="no"?>
<!DOCTYPE svg PUBLIC "-//W3C//DTD SVG 1.1//EN" "http://www.w3.org/Graphics/SVG/1.1/DTD/svg11.dtd">
<svg width="100%" height="100%" viewBox="0 0 218 387" version="1.1" xmlns="http://www.w3.org/2000/svg" xmlns:xlink="http://www.w3.org/1999/xlink" xml:space="preserve" xmlns:serif="http://www.serif.com/" style="fill-rule:evenodd;clip-rule:evenodd;stroke-linecap:round;stroke-linejoin:round;stroke-miterlimit:1.5;">
    <g id="Artboard-example1" serif:id="Artboard example1" transform="matrix(0.0980216,0,0,0.232014,0,0)">
        <rect x="0" y="0" width="2224" height="1668" style="fill:none;"/>
        <g transform="matrix(7.79647,0,0,3.29386,700.901,1101.27)">
            <path d="M59.831,58.995C59.831,59.678 59.266,60.253 58.562,60.253L41.57,60.253C40.834,60.253 40.269,59.678 40.269,58.995L40.269,33.77C40.269,33.066 40.877,32.511 41.57,32.511L50.764,32.511L50.764,37.728C50.764,39.818 52.472,41.524 54.55,41.524L59.831,41.524L59.831,58.995ZM53.25,33.588L58.69,39.039L54.55,39.039C53.857,39.039 53.25,38.43 53.25,37.728L53.25,33.588ZM56.472,53.332L43.661,53.332C42.968,53.332 42.402,53.887 42.402,54.548C42.402,55.252 42.968,55.817 43.661,55.817L56.472,55.817C57.174,55.817 57.73,55.252 57.73,54.548C57.73,53.887 57.174,53.332 56.472,53.332ZM56.472,48.331L43.661,48.331C42.968,48.331 42.402,48.884 42.402,49.589C42.402,50.239 42.968,50.794 43.661,50.794L56.472,50.794C57.174,50.794 57.73,50.239 57.73,49.589C57.73,48.884 57.174,48.331 56.472,48.331ZM62.304,40.031C62.178,39.349 61.826,38.644 61.26,38.089L54.253,31.114C53.687,30.549 52.942,30.154 52.205,30.069L52.119,30.026L41.57,30.026C39.48,30.026 37.784,31.723 37.784,33.77L37.784,59.177C37.912,61.119 39.564,62.739 41.57,62.739L58.562,62.739C60.652,62.739 62.359,61.085 62.359,58.995L62.359,40.127L62.304,40.031Z" style="fill:rgb(249,167,119);"/>
        </g>
        <g id="package" transform="matrix(0.516893,0,0,0.218377,315.765,910.456)">
            <g transform="matrix(1,0,0,1,996.766,-666.954)">
                <rect x="125" y="300" width="750" height="500" style="fill:rgb(249,167,119);fill-rule:nonzero;"/>
            </g>
            <g transform="matrix(1,0,0,1,996.766,-666.954)">
                <path d="M275,200L125,200L125,280L355,280L275,200Z" style="fill:rgb(249,167,119);fill-rule:nonzero;"/>
            </g>
        </g>
        <g id="packages" transform="matrix(0.515001,0,0,0.217578,840.494,424.246)">
            <rect x="54.29" y="370.711" width="750" height="500" style="fill:rgb(249,167,119);fill-rule:nonzero;"/>
            <path d="M204.29,270.711L54.29,270.711L54.29,350.711L284.29,350.711L204.29,270.711Z" style="fill:rgb(249,167,119);fill-rule:nonzero;"/>
            <path d="M945.71,229.288L945.71,729.288L814.29,729.288L814.29,360.708L308.43,360.708L208.43,260.708L195.71,260.708L195.71,229.288L945.71,229.288Z" style="fill:rgb(249,167,119);fill-rule:nonzero;"/>
            <path d="M345.711,129.289L195.711,129.289L195.711,209.289L425.711,209.289L345.711,129.289Z" style="fill:rgb(249,167,119);fill-rule:nonzero;"/>
        </g>
        <g transform="matrix(2.43249,0,0,1.02768,-1526.37,1221.6)">
            <text x="788.731px" y="305.775px" style="font-family:'Merriweather-Bold', 'Merriweather';font-weight:700;font-size:41.94px;fill:rgb(63,107,113);fill-opacity:0.85;">action name = demo/hello</text>
        </g>
        <g transform="matrix(3.53897,0,0,1.49514,-2666.95,932.099)">
            <text x="1010.22px" y="305.775px" style="font-family:'OpenSans-SemiBold', 'Open Sans', sans-serif;font-weight:600;font-size:32.863px;fill:rgb(216,120,67);">hello.js</text>
        </g>
        <g transform="matrix(3.53897,0,0,1.49514,-2684.59,568.208)">
            <text x="1020.97px" y="305.775px" style="font-family:'OpenSans-SemiBold', 'Open Sans', sans-serif;font-weight:600;font-size:32.863px;fill:rgb(216,120,67);">demo</text>
        </g>
        <g transform="matrix(3.53897,0,0,1.49514,-2685.62,209.895)">
            <text x="992.982px" y="305.775px" style="font-family:'OpenSans-SemiBold', 'Open Sans', sans-serif;font-weight:600;font-size:32.863px;fill:rgb(216,120,67);">packages</text>
        </g>
        <g transform="matrix(3.53897,0,0,1.49514,-2675.71,-132.908)">
            <text x="968.62px" y="305.775px" style="font-family:'OpenSans-SemiBold', 'Open Sans', sans-serif;font-weight:600;font-size:41.511px;fill:rgb(216,120,67);">example1</text>
        </g>
        <g transform="matrix(8.62603,0,0,3.64433,-2932.49,-903.424)">
            <text x="380.661px" y="300.824px" style="font-family:'OpenSans-SemiBold', 'Open Sans', sans-serif;font-weight:600;font-size:20.342px;fill:rgb(51,51,51);">Example1 project</text>
        </g>
        <g transform="matrix(3.53897,0,0,0.549207,414.782,15.5564)">
            <path d="M191,1237L191,1417.5" style="fill:none;stroke:rgb(249,167,119);stroke-width:7.65px;"/>
        </g>
        <g transform="matrix(3.53897,0,0,0.79945,412.07,91.2786)">
            <path d="M191,1237L191,1361" style="fill:none;stroke:rgb(249,167,119);stroke-width:7.19px;"/>
        </g>
        <g transform="matrix(3.53897,0,0,0.549207,413.49,-340.188)">
            <path d="M191,1237L191,1417.5" style="fill:none;stroke:rgb(249,167,119);stroke-width:7.65px;"/>
        </g>
        <g transform="matrix(0.817168,0,0,0.816129,90.9738,48.6198)">
            <rect x="26" y="0" width="2397" height="1932" style="fill:none;stroke:rgb(95,158,167);stroke-width:27.51px;"/>
        </g>
        <g transform="matrix(2.12721,0,0,1.1598,-268.566,-495.879)">
            <ellipse cx="639" cy="1299" rx="110" ry="47" style="fill:none;stroke:rgb(95,158,167);stroke-opacity:0.5;stroke-width:16.62px;"/>
        </g>
        <g transform="matrix(1.47801,0,0,1.22207,86.5875,-210.961)">
            <ellipse cx="639" cy="1299" rx="110" ry="47" style="fill:none;stroke:rgb(95,158,167);stroke-opacity:0.5;stroke-width:17.77px;"/>
        </g>
    </g>
</svg>
