<?xml version="1.0" encoding="UTF-8" standalone="no"?>
<!DOCTYPE svg PUBLIC "-//W3C//DTD SVG 1.1//EN" "http://www.w3.org/Graphics/SVG/1.1/DTD/svg11.dtd">
<svg width="100%" height="100%" viewBox="0 0 218 387" version="1.1" xmlns="http://www.w3.org/2000/svg" xmlns:xlink="http://www.w3.org/1999/xlink" xml:space="preserve" xmlns:serif="http://www.serif.com/" style="fill-rule:evenodd;clip-rule:evenodd;stroke-linecap:round;stroke-linejoin:round;stroke-miterlimit:1.5;">
    <g transform="matrix(1,0,0,1,0,-156.5)">
        <g id="Artboard-example1" serif:id="Artboard example1" transform="matrix(0.0980216,0,0,0.232014,0,156.5)">
            <rect x="0" y="0" width="2224" height="1668" style="fill:none;"/>
            <g transform="matrix(7.79647,0,0,3.29386,700.901,1101.27)">
                <path d="M59.831,58.995c0,0.683 -0.565,1.258 -1.269,1.258l-16.992,0c-0.736,0 -1.301,-0.575 -1.301,-1.258l0,-25.225c0,-0.704 0.608,-1.259 1.301,-1.259l9.194,0l0,5.217c0,2.09 1.708,3.796 3.786,3.796l5.281,0l0,17.471Zm-6.581,-25.407l5.44,5.451l-4.14,0c-0.693,0 -1.3,-0.609 -1.3,-1.311l0,-4.14Zm3.222,19.744l-10.411,0l-2.4,0c-0.693,0 -1.259,0.555 -1.259,1.216c0,0.704 0.566,1.269 1.259,1.269l12.811,0c0.702,0 1.258,-0.565 1.258,-1.269c0,-0.661 -0.556,-1.216 -1.258,-1.216Zm0,-5.001l-0.736,0l-2.359,0l-9.716,0c-0.693,0 -1.259,0.553 -1.259,1.258c0,0.65 0.566,1.205 1.259,1.205l12.811,0c0.702,0 1.258,-0.555 1.258,-1.205c0,-0.705 -0.556,-1.258 -1.258,-1.258Zm5.832,-8.3c-0.126,-0.682 -0.478,-1.387 -1.044,-1.942l-7.007,-6.975c-0.566,-0.565 -1.311,-0.96 -2.048,-1.045l-0.086,-0.043l-10.549,0c-2.09,0 -3.786,1.697 -3.786,3.744l0,25.407c0.128,1.942 1.78,3.562 3.786,3.562l16.992,0c2.09,0 3.797,-1.654 3.797,-3.744l0,-18.868l-0.055,-0.096Z" style="fill:#f9a777;"/>
            </g>
            <g id="package" transform="matrix(0.516893,0,0,0.218377,315.765,910.456)">
                <g transform="matrix(1,0,0,1,996.766,-666.954)">
                    <rect x="125" y="300" width="750" height="500" style="fill:#f9a777;fill-rule:nonzero;"/>
                </g>
                <g transform="matrix(1,0,0,1,996.766,-666.954)">
                    <path d="M275,200l-150,0l0,80l230,0l-80,-80Z" style="fill:#f9a777;fill-rule:nonzero;"/>
                </g>
            </g>
            <g id="packages" transform="matrix(0.515001,0,0,0.217578,840.494,424.246)">
                <rect x="54.29" y="370.711" width="750" height="500" style="fill:#f9a777;fill-rule:nonzero;"/>
                <path d="M204.29,270.711l-150,0l0,80l230,0l-80,-80Z" style="fill:#f9a777;fill-rule:nonzero;"/>
                <path d="M945.71,229.288l0,500l-131.42,0l0,-368.58l-505.86,0l-100,-100l-12.72,0l0,-31.42l750,0Z" style="fill:#f9a777;fill-rule:nonzero;"/>
                <path d="M345.711,129.289l-150,0l0,80l230,0l-80,-80Z" style="fill:#f9a777;fill-rule:nonzero;"/>
            </g>
            <g transform="matrix(2.43249,0,0,1.02768,-1526.37,1221.6)">
                <g transform="matrix(41.9398,0,0,41.9398,788.731,305.775)">
                    <path d="M0.352,-0.363c0,-0.024 -0.003,-0.044 -0.008,-0.058c-0.005,-0.014 -0.015,-0.025 -0.03,-0.032c-0.014,-0.007 -0.034,-0.011 -0.061,-0.011c-0.033,0 -0.063,0.004 -0.09,0.011c-0.027,0.007 -0.054,0.017 -0.081,0.029l0,0l-0.032,-0.066c0.011,-0.009 0.028,-0.02 0.053,-0.032c0.025,-0.012 0.054,-0.023 0.088,-0.032c0.033,-0.01 0.067,-0.014 0.102,-0.014c0.052,0 0.093,0.006 0.123,0.02c0.03,0.013 0.051,0.035 0.063,0.064c0.013,0.029 0.02,0.069 0.02,0.119l0,0.299l0.053,0l0,0.062c-0.017,0.004 -0.038,0.007 -0.063,0.011c-0.025,0.003 -0.047,0.005 -0.066,0.005c-0.017,0 -0.03,-0.001 -0.039,-0.004c-0.01,-0.004 -0.016,-0.009 -0.02,-0.017c-0.004,-0.008 -0.006,-0.02 -0.006,-0.035l0,-0.015c-0.016,0.018 -0.038,0.035 -0.065,0.049c-0.027,0.014 -0.059,0.021 -0.094,0.021c-0.032,0 -0.06,-0.006 -0.086,-0.019c-0.026,-0.013 -0.046,-0.032 -0.062,-0.057c-0.015,-0.025 -0.023,-0.055 -0.023,-0.091c0,-0.061 0.029,-0.107 0.086,-0.138c0.058,-0.031 0.137,-0.047 0.238,-0.048l0,-0.021Zm0,0.087c-0.054,0 -0.094,0.01 -0.118,0.029c-0.024,0.019 -0.036,0.044 -0.036,0.073c0,0.03 0.007,0.053 0.021,0.069c0.013,0.016 0.032,0.024 0.055,0.024c0.012,0 0.025,-0.003 0.04,-0.009c0.015,-0.006 0.028,-0.013 0.038,-0.022l0,-0.164Z" style="fill:#3f6b71;fill-opacity:0.85;fill-rule:nonzero;"/>
                </g>
                <g transform="matrix(41.9398,0,0,41.9398,812.507,305.775)">
                    <path d="M0.323,-0.57c0.025,0 0.048,0.002 0.067,0.005c0.019,0.004 0.041,0.009 0.064,0.016c0.016,0.005 0.028,0.008 0.036,0.009l-0.007,0.173l-0.098,0l-0.025,-0.104c-0.003,-0.01 -0.01,-0.017 -0.019,-0.021c-0.01,-0.005 -0.021,-0.007 -0.034,-0.007c-0.068,0 -0.101,0.066 -0.101,0.197c0,0.048 0.005,0.088 0.016,0.12c0.01,0.033 0.025,0.057 0.045,0.072c0.019,0.016 0.041,0.024 0.066,0.024c0.028,0 0.053,-0.004 0.074,-0.011c0.022,-0.007 0.042,-0.017 0.06,-0.028l0.027,0.059c-0.01,0.011 -0.025,0.022 -0.045,0.034c-0.02,0.012 -0.043,0.022 -0.07,0.031c-0.027,0.008 -0.055,0.012 -0.084,0.012c-0.059,0 -0.107,-0.012 -0.146,-0.036c-0.038,-0.024 -0.066,-0.057 -0.085,-0.1c-0.018,-0.042 -0.028,-0.091 -0.028,-0.147c0,-0.059 0.012,-0.11 0.036,-0.155c0.023,-0.046 0.057,-0.081 0.1,-0.106c0.043,-0.025 0.093,-0.037 0.151,-0.037Z" style="fill:#3f6b71;fill-opacity:0.85;fill-rule:nonzero;"/>
                </g>
                <g transform="matrix(41.9398,0,0,41.9398,834.255,305.775)">
                    <path d="M0.024,-0.473l0,-0.057c0.008,-0.003 0.019,-0.008 0.034,-0.014c0.014,-0.006 0.022,-0.01 0.024,-0.011c0.012,-0.012 0.022,-0.028 0.031,-0.048c0.006,-0.012 0.012,-0.028 0.019,-0.047c0.007,-0.02 0.012,-0.037 0.017,-0.053l0.09,0l0.005,0.147l0.146,0l0,0.083l-0.145,0l0,0.265c0,0.038 0.001,0.064 0.002,0.079c0.002,0.015 0.006,0.024 0.012,0.029c0.006,0.004 0.017,0.006 0.033,0.006l0,0c0.028,0 0.059,-0.005 0.092,-0.014l0,0l0.021,0.06c-0.011,0.01 -0.027,0.019 -0.048,0.028c-0.02,0.008 -0.043,0.015 -0.068,0.021c-0.025,0.006 -0.049,0.008 -0.072,0.008l-0.001,0c-0.044,0 -0.077,-0.01 -0.099,-0.03c-0.022,-0.02 -0.033,-0.051 -0.033,-0.093l0,-0.359l-0.06,0Z" style="fill:#3f6b71;fill-opacity:0.85;fill-rule:nonzero;"/>
                </g>
                <g transform="matrix(41.9398,0,0,41.9398,851.375,305.775)">
                    <path d="M0.103,-0.075l0,-0.375l-0.066,-0.02l0,-0.075l0.192,-0.024l0.003,0l0.03,0.021l0,0.473l0.063,0.01l0,0.065l-0.287,0l0,-0.065l0.065,-0.01Zm-0.024,-0.652c0,-0.017 0.004,-0.033 0.011,-0.048c0.007,-0.015 0.018,-0.026 0.032,-0.035c0.014,-0.008 0.031,-0.013 0.051,-0.013l0,0c0.019,0 0.035,0.004 0.048,0.011c0.013,0.008 0.023,0.018 0.03,0.03c0.007,0.013 0.011,0.026 0.011,0.041c0,0.028 -0.009,0.051 -0.026,0.069c-0.017,0.018 -0.041,0.026 -0.072,0.026l-0.001,0c-0.016,0 -0.031,-0.003 -0.043,-0.01c-0.013,-0.007 -0.023,-0.017 -0.03,-0.029c-0.007,-0.013 -0.011,-0.026 -0.011,-0.042Z" style="fill:#3f6b71;fill-opacity:0.85;fill-rule:nonzero;"/>
                </g>
                <g transform="matrix(41.9398,0,0,41.9398,866.14,305.775)">
                    <path d="M0.311,-0.57c0.055,0 0.102,0.011 0.142,0.034c0.04,0.023 0.071,0.056 0.092,0.099c0.021,0.043 0.031,0.095 0.031,0.154c0,0.065 -0.013,0.119 -0.038,0.163c-0.025,0.045 -0.059,0.078 -0.101,0.099c-0.043,0.021 -0.09,0.032 -0.141,0.032c-0.055,0 -0.103,-0.011 -0.142,-0.034c-0.04,-0.023 -0.071,-0.056 -0.092,-0.099c-0.021,-0.043 -0.031,-0.095 -0.031,-0.154c0,-0.063 0.013,-0.117 0.038,-0.161c0.026,-0.044 0.06,-0.078 0.102,-0.1c0.043,-0.022 0.089,-0.033 0.14,-0.033Zm0.093,0.299c0,-0.076 -0.008,-0.134 -0.024,-0.172c-0.016,-0.038 -0.041,-0.057 -0.077,-0.057c-0.034,0 -0.059,0.017 -0.076,0.051c-0.017,0.035 -0.025,0.088 -0.025,0.161c0,0.076 0.008,0.133 0.025,0.172c0.016,0.038 0.042,0.057 0.078,0.057c0.034,0 0.059,-0.017 0.075,-0.051c0.016,-0.034 0.024,-0.088 0.024,-0.161Z" style="fill:#3f6b71;fill-opacity:0.85;fill-rule:nonzero;"/>
                </g>
                <g transform="matrix(41.9398,0,0,41.9398,891.594,305.775)">
                    <path d="M0.107,-0.074l0,-0.376l-0.06,-0.02l0,-0.077l0.177,-0.022l0.002,0l0.027,0.021l0,0.036l-0.001,0.022c0.023,-0.021 0.053,-0.04 0.089,-0.055c0.036,-0.015 0.072,-0.022 0.11,-0.022c0.04,0 0.072,0.007 0.095,0.021c0.023,0.015 0.04,0.038 0.05,0.07c0.011,0.032 0.016,0.075 0.016,0.13l0,0.271l0.058,0.009l0,0.066l-0.271,0l0,-0.065l0.051,-0.01l0,-0.271c0,-0.032 -0.002,-0.058 -0.006,-0.076c-0.004,-0.018 -0.012,-0.031 -0.023,-0.039c-0.011,-0.009 -0.027,-0.013 -0.048,-0.013c-0.019,0 -0.038,0.004 -0.056,0.012c-0.019,0.008 -0.035,0.017 -0.048,0.028l0,0.359l0.056,0.01l0,0.065l-0.274,0l0,-0.065l0.056,-0.009Z" style="fill:#3f6b71;fill-opacity:0.85;fill-rule:nonzero;"/>
                </g>
                <g transform="matrix(41.9398,0,0,41.9398,932.387,305.775)">
                    <path d="M0.107,-0.074l0,-0.376l-0.06,-0.02l0,-0.077l0.177,-0.022l0.002,0l0.027,0.021l0,0.036l-0.001,0.022c0.023,-0.021 0.053,-0.04 0.089,-0.055c0.036,-0.015 0.072,-0.022 0.11,-0.022c0.04,0 0.072,0.007 0.095,0.021c0.023,0.015 0.04,0.038 0.05,0.07c0.011,0.032 0.016,0.075 0.016,0.13l0,0.271l0.058,0.009l0,0.066l-0.271,0l0,-0.065l0.051,-0.01l0,-0.271c0,-0.032 -0.002,-0.058 -0.006,-0.076c-0.004,-0.018 -0.012,-0.031 -0.023,-0.039c-0.011,-0.009 -0.027,-0.013 -0.048,-0.013c-0.019,0 -0.038,0.004 -0.056,0.012c-0.019,0.008 -0.035,0.017 -0.048,0.028l0,0.359l0.056,0.01l0,0.065l-0.274,0l0,-0.065l0.056,-0.009Z" style="fill:#3f6b71;fill-opacity:0.85;fill-rule:nonzero;"/>
                </g>
                <g transform="matrix(41.9398,0,0,41.9398,961.446,305.775)">
                    <path d="M0.352,-0.363c0,-0.024 -0.003,-0.044 -0.008,-0.058c-0.005,-0.014 -0.015,-0.025 -0.03,-0.032c-0.014,-0.007 -0.034,-0.011 -0.061,-0.011c-0.033,0 -0.063,0.004 -0.09,0.011c-0.027,0.007 -0.054,0.017 -0.081,0.029l0,0l-0.032,-0.066c0.011,-0.009 0.028,-0.02 0.053,-0.032c0.025,-0.012 0.054,-0.023 0.088,-0.032c0.033,-0.01 0.067,-0.014 0.102,-0.014c0.052,0 0.093,0.006 0.123,0.02c0.03,0.013 0.051,0.035 0.063,0.064c0.013,0.029 0.02,0.069 0.02,0.119l0,0.299l0.053,0l0,0.062c-0.017,0.004 -0.038,0.007 -0.063,0.011c-0.025,0.003 -0.047,0.005 -0.066,0.005c-0.017,0 -0.03,-0.001 -0.039,-0.004c-0.01,-0.004 -0.016,-0.009 -0.02,-0.017c-0.004,-0.008 -0.006,-0.02 -0.006,-0.035l0,-0.015c-0.016,0.018 -0.038,0.035 -0.065,0.049c-0.027,0.014 -0.059,0.021 -0.094,0.021c-0.032,0 -0.06,-0.006 -0.086,-0.019c-0.026,-0.013 -0.046,-0.032 -0.062,-0.057c-0.015,-0.025 -0.023,-0.055 -0.023,-0.091c0,-0.061 0.029,-0.107 0.086,-0.138c0.058,-0.031 0.137,-0.047 0.238,-0.048l0,-0.021Zm0,0.087c-0.054,0 -0.094,0.01 -0.118,0.029c-0.024,0.019 -0.036,0.044 -0.036,0.073c0,0.03 0.007,0.053 0.021,0.069c0.013,0.016 0.032,0.024 0.055,0.024c0.012,0 0.025,-0.003 0.04,-0.009c0.015,-0.006 0.028,-0.013 0.038,-0.022l0,-0.164Z" style="fill:#3f6b71;fill-opacity:0.85;fill-rule:nonzero;"/>
                </g>
                <g transform="matrix(41.9398,0,0,41.9398,985.222,305.775)">
                    <path d="M0.107,-0.074l0,-0.376l-0.06,-0.02l0,-0.077l0.177,-0.022l0.002,0l0.026,0.021l0,0.036l0,0.023c0.014,-0.014 0.033,-0.027 0.057,-0.039c0.024,-0.012 0.049,-0.022 0.074,-0.029c0.026,-0.007 0.048,-0.01 0.067,-0.01c0.036,0 0.066,0.006 0.088,0.018c0.022,0.012 0.039,0.031 0.05,0.057c0.023,-0.021 0.051,-0.039 0.086,-0.053c0.035,-0.015 0.07,-0.022 0.105,-0.022c0.041,0 0.073,0.007 0.096,0.023c0.024,0.015 0.041,0.039 0.052,0.071c0.01,0.032 0.015,0.074 0.015,0.126l0,0.273l0.061,0.009l0,0.065l-0.267,0l0,-0.065l0.046,-0.01l0,-0.268c0,-0.033 -0.003,-0.059 -0.007,-0.078c-0.005,-0.018 -0.013,-0.032 -0.025,-0.04c-0.011,-0.009 -0.028,-0.013 -0.049,-0.013c-0.016,0 -0.033,0.004 -0.05,0.011c-0.017,0.007 -0.033,0.016 -0.047,0.026c0.004,0.025 0.006,0.056 0.006,0.091l0,0.271l0.06,0.01l0,0.065l-0.273,0l0,-0.065l0.052,-0.01l0,-0.271c0,-0.032 -0.002,-0.058 -0.006,-0.076c-0.004,-0.018 -0.012,-0.031 -0.023,-0.039c-0.011,-0.009 -0.027,-0.013 -0.048,-0.013c-0.018,0 -0.037,0.004 -0.056,0.011c-0.019,0.008 -0.035,0.017 -0.048,0.028l0,0.36l0.056,0.01l0,0.065l-0.271,0l0,-0.065l0.054,-0.009Z" style="fill:#3f6b71;fill-opacity:0.85;fill-rule:nonzero;"/>
                </g>
                <g transform="matrix(41.9398,0,0,41.9398,1028.27,305.775)">
                    <path d="M0.033,-0.277c0,-0.061 0.011,-0.113 0.034,-0.157c0.022,-0.044 0.054,-0.077 0.095,-0.101c0.041,-0.023 0.089,-0.035 0.143,-0.035c0.068,0 0.121,0.018 0.158,0.052c0.036,0.035 0.055,0.085 0.057,0.15c0,0.046 -0.002,0.08 -0.007,0.103l-0.316,0c0.004,0.06 0.019,0.105 0.044,0.134c0.026,0.029 0.06,0.043 0.102,0.043c0.025,0 0.05,-0.004 0.077,-0.013c0.026,-0.008 0.048,-0.018 0.064,-0.028l0.029,0.06c-0.012,0.012 -0.029,0.024 -0.051,0.037c-0.022,0.012 -0.048,0.022 -0.077,0.031c-0.028,0.008 -0.057,0.012 -0.086,0.012c-0.061,0 -0.111,-0.012 -0.151,-0.036c-0.039,-0.024 -0.068,-0.058 -0.087,-0.101c-0.019,-0.043 -0.028,-0.093 -0.028,-0.151Zm0.331,-0.055l0.001,-0.041c0,-0.04 -0.006,-0.072 -0.018,-0.094c-0.012,-0.023 -0.031,-0.034 -0.059,-0.034c-0.019,0 -0.035,0.005 -0.048,0.014c-0.013,0.01 -0.023,0.027 -0.031,0.052c-0.008,0.025 -0.012,0.059 -0.013,0.103l0.168,0Z" style="fill:#3f6b71;fill-opacity:0.85;fill-rule:nonzero;"/>
                </g>
                <g transform="matrix(41.9398,0,0,41.9398,1063.12,305.775)">
                    <path d="M0.556,-0.483l0,0.098l-0.457,0l0,-0.098l0.457,0Zm0,0.266l0,0.099l-0.457,0l0,-0.099l0.457,0Z" style="fill:#3f6b71;fill-opacity:0.85;fill-rule:nonzero;"/>
                </g>
                <g transform="matrix(41.9398,0,0,41.9398,1102.24,305.775)">
                    <path d="M0.034,-0.265c0,-0.056 0.011,-0.107 0.034,-0.153c0.023,-0.047 0.057,-0.084 0.102,-0.111c0.045,-0.028 0.099,-0.041 0.162,-0.041c0.019,0 0.039,0.002 0.062,0.007l0,-0.161l-0.095,-0.013l0,-0.062l0.216,-0.021l0.004,0l0.031,0.023l0,0.729l0.052,0l0,0.064c-0.051,0.011 -0.093,0.016 -0.126,0.016c-0.016,0 -0.028,-0.001 -0.038,-0.004c-0.009,-0.003 -0.016,-0.009 -0.02,-0.017c-0.005,-0.008 -0.007,-0.02 -0.007,-0.035l0,-0.021c-0.018,0.022 -0.041,0.04 -0.069,0.055c-0.029,0.014 -0.059,0.021 -0.092,0.021c-0.041,0 -0.078,-0.01 -0.11,-0.03c-0.033,-0.019 -0.059,-0.05 -0.078,-0.091c-0.019,-0.042 -0.028,-0.093 -0.028,-0.155Zm0.36,-0.215c-0.005,-0.006 -0.013,-0.011 -0.026,-0.016c-0.013,-0.004 -0.027,-0.006 -0.042,-0.006c-0.037,0 -0.067,0.018 -0.09,0.054c-0.023,0.035 -0.034,0.094 -0.034,0.174c0,0.066 0.01,0.115 0.029,0.147c0.02,0.032 0.046,0.048 0.079,0.048c0.018,0 0.035,-0.003 0.049,-0.011c0.014,-0.007 0.026,-0.016 0.035,-0.026l0,-0.364Z" style="fill:#3f6b71;fill-opacity:0.85;fill-rule:nonzero;"/>
                </g>
                <g transform="matrix(41.9398,0,0,41.9398,1128.59,305.775)">
                    <path d="M0.033,-0.277c0,-0.061 0.011,-0.113 0.034,-0.157c0.022,-0.044 0.054,-0.077 0.095,-0.101c0.041,-0.023 0.089,-0.035 0.143,-0.035c0.068,0 0.121,0.018 0.158,0.052c0.036,0.035 0.055,0.085 0.057,0.15c0,0.046 -0.002,0.08 -0.007,0.103l-0.316,0c0.004,0.06 0.019,0.105 0.044,0.134c0.026,0.029 0.06,0.043 0.102,0.043c0.025,0 0.05,-0.004 0.077,-0.013c0.026,-0.008 0.048,-0.018 0.064,-0.028l0.029,0.06c-0.012,0.012 -0.029,0.024 -0.051,0.037c-0.022,0.012 -0.048,0.022 -0.077,0.031c-0.028,0.008 -0.057,0.012 -0.086,0.012c-0.061,0 -0.111,-0.012 -0.151,-0.036c-0.039,-0.024 -0.068,-0.058 -0.087,-0.101c-0.019,-0.043 -0.028,-0.093 -0.028,-0.151Zm0.331,-0.055l0.001,-0.041c0,-0.04 -0.006,-0.072 -0.018,-0.094c-0.012,-0.023 -0.031,-0.034 -0.059,-0.034c-0.019,0 -0.035,0.005 -0.048,0.014c-0.013,0.01 -0.023,0.027 -0.031,0.052c-0.008,0.025 -0.012,0.059 -0.013,0.103l0.168,0Z" style="fill:#3f6b71;fill-opacity:0.85;fill-rule:nonzero;"/>
                </g>
                <g transform="matrix(41.9398,0,0,41.9398,1151.71,305.775)">
                    <path d="M0.107,-0.074l0,-0.376l-0.06,-0.02l0,-0.077l0.177,-0.022l0.002,0l0.026,0.021l0,0.036l0,0.023c0.014,-0.014 0.033,-0.027 0.057,-0.039c0.024,-0.012 0.049,-0.022 0.074,-0.029c0.026,-0.007 0.048,-0.01 0.067,-0.01c0.036,0 0.066,0.006 0.088,0.018c0.022,0.012 0.039,0.031 0.05,0.057c0.023,-0.021 0.051,-0.039 0.086,-0.053c0.035,-0.015 0.07,-0.022 0.105,-0.022c0.041,0 0.073,0.007 0.096,0.023c0.024,0.015 0.041,0.039 0.052,0.071c0.01,0.032 0.015,0.074 0.015,0.126l0,0.273l0.061,0.009l0,0.065l-0.267,0l0,-0.065l0.046,-0.01l0,-0.268c0,-0.033 -0.003,-0.059 -0.007,-0.078c-0.005,-0.018 -0.013,-0.032 -0.025,-0.04c-0.011,-0.009 -0.028,-0.013 -0.049,-0.013c-0.016,0 -0.033,0.004 -0.05,0.011c-0.017,0.007 -0.033,0.016 -0.047,0.026c0.004,0.025 0.006,0.056 0.006,0.091l0,0.271l0.06,0.01l0,0.065l-0.273,0l0,-0.065l0.052,-0.01l0,-0.271c0,-0.032 -0.002,-0.058 -0.006,-0.076c-0.004,-0.018 -0.012,-0.031 -0.023,-0.039c-0.011,-0.009 -0.027,-0.013 -0.048,-0.013c-0.018,0 -0.037,0.004 -0.056,0.011c-0.019,0.008 -0.035,0.017 -0.048,0.028l0,0.36l0.056,0.01l0,0.065l-0.271,0l0,-0.065l0.054,-0.009Z" style="fill:#3f6b71;fill-opacity:0.85;fill-rule:nonzero;"/>
                </g>
                <g transform="matrix(41.9398,0,0,41.9398,1194.76,305.775)">
                    <path d="M0.311,-0.57c0.055,0 0.102,0.011 0.142,0.034c0.04,0.023 0.071,0.056 0.092,0.099c0.021,0.043 0.031,0.095 0.031,0.154c0,0.065 -0.013,0.119 -0.038,0.163c-0.025,0.045 -0.059,0.078 -0.101,0.099c-0.043,0.021 -0.09,0.032 -0.141,0.032c-0.055,0 -0.103,-0.011 -0.142,-0.034c-0.04,-0.023 -0.071,-0.056 -0.092,-0.099c-0.021,-0.043 -0.031,-0.095 -0.031,-0.154c0,-0.063 0.013,-0.117 0.038,-0.161c0.026,-0.044 0.06,-0.078 0.102,-0.1c0.043,-0.022 0.089,-0.033 0.14,-0.033Zm0.093,0.299c0,-0.076 -0.008,-0.134 -0.024,-0.172c-0.016,-0.038 -0.041,-0.057 -0.077,-0.057c-0.034,0 -0.059,0.017 -0.076,0.051c-0.017,0.035 -0.025,0.088 -0.025,0.161c0,0.076 0.008,0.133 0.025,0.172c0.016,0.038 0.042,0.057 0.078,0.057c0.034,0 0.059,-0.017 0.075,-0.051c0.016,-0.034 0.024,-0.088 0.024,-0.161Z" style="fill:#3f6b71;fill-opacity:0.85;fill-rule:nonzero;"/>
                </g>
                <g transform="matrix(41.9398,0,0,41.9398,1220.21,305.775)">
                    <path d="M0.398,-0.781l-0.252,0.958l-0.114,0l0.253,-0.958l0.113,0Z" style="fill:#3f6b71;fill-opacity:0.85;fill-rule:nonzero;"/>
                </g>
                <g transform="matrix(41.9398,0,0,41.9398,1238.27,305.775)">
                    <path d="M0.094,-0.075l0,-0.649l-0.072,-0.012l0,-0.06l0.197,-0.024l0.003,0l0.029,0.021l0.001,0.216l-0.008,0.09c0.022,-0.02 0.05,-0.037 0.083,-0.052c0.033,-0.015 0.07,-0.022 0.109,-0.022c0.042,0 0.074,0.007 0.097,0.023c0.024,0.016 0.04,0.039 0.05,0.071c0.009,0.031 0.014,0.074 0.014,0.126l0,0.272l0.063,0.01l0,0.065l-0.275,0l0,-0.065l0.053,-0.01l0,-0.271c0,-0.032 -0.002,-0.057 -0.006,-0.075c-0.004,-0.018 -0.011,-0.031 -0.022,-0.04c-0.011,-0.009 -0.028,-0.013 -0.049,-0.013c-0.019,0 -0.038,0.004 -0.057,0.011c-0.019,0.007 -0.035,0.017 -0.049,0.028l0,0.36l0.058,0.01l0,0.065l-0.272,0l0,-0.065l0.053,-0.01Z" style="fill:#3f6b71;fill-opacity:0.85;fill-rule:nonzero;"/>
                </g>
                <g transform="matrix(41.9398,0,0,41.9398,1266.7,305.775)">
                    <path d="M0.033,-0.277c0,-0.061 0.011,-0.113 0.034,-0.157c0.022,-0.044 0.054,-0.077 0.095,-0.101c0.041,-0.023 0.089,-0.035 0.143,-0.035c0.068,0 0.121,0.018 0.158,0.052c0.036,0.035 0.055,0.085 0.057,0.15c0,0.046 -0.002,0.08 -0.007,0.103l-0.316,0c0.004,0.06 0.019,0.105 0.044,0.134c0.026,0.029 0.06,0.043 0.102,0.043c0.025,0 0.05,-0.004 0.077,-0.013c0.026,-0.008 0.048,-0.018 0.064,-0.028l0.029,0.06c-0.012,0.012 -0.029,0.024 -0.051,0.037c-0.022,0.012 -0.048,0.022 -0.077,0.031c-0.028,0.008 -0.057,0.012 -0.086,0.012c-0.061,0 -0.111,-0.012 -0.151,-0.036c-0.039,-0.024 -0.068,-0.058 -0.087,-0.101c-0.019,-0.043 -0.028,-0.093 -0.028,-0.151Zm0.331,-0.055l0.001,-0.041c0,-0.04 -0.006,-0.072 -0.018,-0.094c-0.012,-0.023 -0.031,-0.034 -0.059,-0.034c-0.019,0 -0.035,0.005 -0.048,0.014c-0.013,0.01 -0.023,0.027 -0.031,0.052c-0.008,0.025 -0.012,0.059 -0.013,0.103l0.168,0Z" style="fill:#3f6b71;fill-opacity:0.85;fill-rule:nonzero;"/>
                </g>
                <g transform="matrix(41.9398,0,0,41.9398,1289.82,305.775)">
                    <path d="M0.096,-0.075l0,-0.649l-0.072,-0.012l0,-0.06l0.197,-0.024l0.003,0l0.029,0.021l0,0.724l0.066,0.01l0,0.065l-0.289,0l0,-0.065l0.066,-0.01Z" style="fill:#3f6b71;fill-opacity:0.85;fill-rule:nonzero;"/>
                </g>
                <g transform="matrix(41.9398,0,0,41.9398,1304.23,305.775)">
                    <path d="M0.096,-0.075l0,-0.649l-0.072,-0.012l0,-0.06l0.197,-0.024l0.003,0l0.029,0.021l0,0.724l0.066,0.01l0,0.065l-0.289,0l0,-0.065l0.066,-0.01Z" style="fill:#3f6b71;fill-opacity:0.85;fill-rule:nonzero;"/>
                </g>
                <g transform="matrix(41.9398,0,0,41.9398,1318.65,305.775)">
                    <path d="M0.311,-0.57c0.055,0 0.102,0.011 0.142,0.034c0.04,0.023 0.071,0.056 0.092,0.099c0.021,0.043 0.031,0.095 0.031,0.154c0,0.065 -0.013,0.119 -0.038,0.163c-0.025,0.045 -0.059,0.078 -0.101,0.099c-0.043,0.021 -0.09,0.032 -0.141,0.032c-0.055,0 -0.103,-0.011 -0.142,-0.034c-0.04,-0.023 -0.071,-0.056 -0.092,-0.099c-0.021,-0.043 -0.031,-0.095 -0.031,-0.154c0,-0.063 0.013,-0.117 0.038,-0.161c0.026,-0.044 0.06,-0.078 0.102,-0.1c0.043,-0.022 0.089,-0.033 0.14,-0.033Zm0.093,0.299c0,-0.076 -0.008,-0.134 -0.024,-0.172c-0.016,-0.038 -0.041,-0.057 -0.077,-0.057c-0.034,0 -0.059,0.017 -0.076,0.051c-0.017,0.035 -0.025,0.088 -0.025,0.161c0,0.076 0.008,0.133 0.025,0.172c0.016,0.038 0.042,0.057 0.078,0.057c0.034,0 0.059,-0.017 0.075,-0.051c0.016,-0.034 0.024,-0.088 0.024,-0.161Z" style="fill:#3f6b71;fill-opacity:0.85;fill-rule:nonzero;"/>
                </g>
            </g>
            <g transform="matrix(3.53897,0,0,1.49514,-2666.95,932.099)">
                <g transform="matrix(32.863,0,0,32.863,1010.22,305.775)">
                    <path d="M0.557,0l-0.115,0l0,-0.332c0,-0.042 -0.008,-0.073 -0.025,-0.093c-0.017,-0.021 -0.044,-0.031 -0.08,-0.031c-0.048,0 -0.084,0.014 -0.106,0.043c-0.023,0.029 -0.034,0.077 -0.034,0.145l0,0.268l-0.115,0l0,-0.76l0.115,0l0,0.193c0,0.031 -0.002,0.064 -0.006,0.099l0.007,0c0.016,-0.026 0.038,-0.046 0.065,-0.06c0.028,-0.015 0.061,-0.022 0.098,-0.022c0.131,0 0.196,0.066 0.196,0.198l0,0.352Z" style="fill:#d87843;fill-rule:nonzero;"/>
                </g>
                <g transform="matrix(32.863,0,0,32.863,1031.08,305.775)">
                    <path d="M0.318,0.01c-0.084,0 -0.15,-0.025 -0.197,-0.074c-0.048,-0.049 -0.071,-0.116 -0.071,-0.202c0,-0.088 0.022,-0.158 0.066,-0.208c0.044,-0.051 0.104,-0.076 0.181,-0.076c0.071,0 0.127,0.022 0.169,0.065c0.041,0.043 0.062,0.103 0.062,0.179l0,0.062l-0.36,0c0.002,0.052 0.016,0.093 0.042,0.121c0.027,0.028 0.065,0.042 0.113,0.042c0.032,0 0.062,-0.003 0.089,-0.009c0.028,-0.006 0.057,-0.016 0.089,-0.03l0,0.093c-0.028,0.013 -0.056,0.023 -0.085,0.028c-0.029,0.006 -0.061,0.009 -0.098,0.009Zm-0.021,-0.473c-0.037,0 -0.066,0.012 -0.088,0.035c-0.022,0.023 -0.035,0.057 -0.039,0.101l0.245,0c-0.001,-0.045 -0.011,-0.079 -0.032,-0.101c-0.021,-0.023 -0.05,-0.035 -0.086,-0.035Z" style="fill:#d87843;fill-rule:nonzero;"/>
                </g>
                <g transform="matrix(32.863,0,0,32.863,1050.02,305.775)">
                    <rect x="0.082" y="-0.76" width="0.115" height="0.76" style="fill:#d87843;fill-rule:nonzero;"/>
                </g>
                <g transform="matrix(32.863,0,0,32.863,1059.18,305.775)">
                    <rect x="0.082" y="-0.76" width="0.115" height="0.76" style="fill:#d87843;fill-rule:nonzero;"/>
                </g>
                <g transform="matrix(32.863,0,0,32.863,1068.34,305.775)">
                    <path d="M0.561,-0.271c0,0.088 -0.023,0.157 -0.068,0.207c-0.045,0.049 -0.108,0.074 -0.189,0.074c-0.05,0 -0.095,-0.012 -0.134,-0.034c-0.038,-0.023 -0.068,-0.056 -0.089,-0.099c-0.021,-0.042 -0.031,-0.092 -0.031,-0.148c0,-0.088 0.022,-0.156 0.067,-0.205c0.045,-0.049 0.108,-0.074 0.19,-0.074c0.078,0 0.14,0.025 0.186,0.076c0.045,0.05 0.068,0.118 0.068,0.203Zm-0.393,0c0,0.125 0.046,0.187 0.138,0.187c0.091,0 0.137,-0.062 0.137,-0.187c0,-0.123 -0.046,-0.185 -0.138,-0.185c-0.048,0 -0.083,0.016 -0.105,0.048c-0.021,0.032 -0.032,0.077 -0.032,0.137Z" style="fill:#d87843;fill-rule:nonzero;"/>
                </g>
                <g transform="matrix(32.863,0,0,32.863,1088.42,305.775)">
                    <path d="M0.065,-0.061c0,-0.024 0.006,-0.042 0.018,-0.055c0.013,-0.012 0.031,-0.019 0.054,-0.019c0.024,0 0.042,0.007 0.054,0.02c0.013,0.013 0.019,0.031 0.019,0.054c0,0.023 -0.006,0.041 -0.019,0.055c-0.012,0.013 -0.03,0.02 -0.054,0.02c-0.023,0 -0.041,-0.007 -0.054,-0.02c-0.012,-0.013 -0.018,-0.032 -0.018,-0.055Z" style="fill:#d87843;fill-rule:nonzero;"/>
                </g>
                <g transform="matrix(32.863,0,0,32.863,1097.45,305.775)">
                    <path d="M0.027,0.24c-0.035,0 -0.063,-0.004 -0.086,-0.012l0,-0.091c0.022,0.006 0.045,0.009 0.068,0.009c0.049,0 0.073,-0.028 0.073,-0.083l0,-0.603l0.115,0l0,0.611c0,0.055 -0.015,0.098 -0.044,0.126c-0.029,0.029 -0.071,0.043 -0.126,0.043Zm0.048,-0.923c0,-0.021 0.006,-0.036 0.017,-0.047c0.011,-0.012 0.027,-0.017 0.048,-0.017c0.02,0 0.036,0.005 0.047,0.017c0.011,0.011 0.017,0.026 0.017,0.047c0,0.019 -0.006,0.035 -0.017,0.046c-0.011,0.011 -0.027,0.017 -0.047,0.017c-0.021,0 -0.037,-0.006 -0.048,-0.017c-0.011,-0.011 -0.017,-0.027 -0.017,-0.046Z" style="fill:#d87843;fill-rule:nonzero;"/>
                </g>
                <g transform="matrix(32.863,0,0,32.863,1106.61,305.775)">
                    <path d="M0.445,-0.154c0,0.053 -0.019,0.093 -0.058,0.122c-0.038,0.028 -0.093,0.042 -0.165,0.042c-0.072,0 -0.13,-0.011 -0.173,-0.033l0,-0.099c0.063,0.029 0.122,0.044 0.177,0.044c0.071,0 0.106,-0.021 0.106,-0.064c0,-0.014 -0.004,-0.025 -0.012,-0.034c-0.007,-0.009 -0.02,-0.019 -0.038,-0.029c-0.018,-0.009 -0.043,-0.02 -0.075,-0.033c-0.062,-0.024 -0.104,-0.048 -0.126,-0.072c-0.022,-0.024 -0.033,-0.055 -0.033,-0.094c0,-0.046 0.018,-0.082 0.056,-0.107c0.037,-0.026 0.088,-0.039 0.152,-0.039c0.063,0 0.123,0.013 0.18,0.039l-0.037,0.086c-0.058,-0.024 -0.107,-0.036 -0.147,-0.036c-0.061,0 -0.091,0.017 -0.091,0.052c0,0.017 0.008,0.031 0.024,0.043c0.016,0.012 0.05,0.028 0.103,0.048c0.045,0.017 0.077,0.033 0.097,0.047c0.02,0.015 0.035,0.031 0.045,0.05c0.01,0.019 0.015,0.041 0.015,0.067Z" style="fill:#d87843;fill-rule:nonzero;"/>
                </g>
            </g>
            <g transform="matrix(3.53897,0,0,1.49514,-2684.59,568.208)">
                <g transform="matrix(32.863,0,0,32.863,1020.97,305.775)">
                    <path d="M0.264,0.01c-0.067,0 -0.12,-0.025 -0.158,-0.073c-0.037,-0.049 -0.056,-0.118 -0.056,-0.206c0,-0.089 0.019,-0.158 0.057,-0.207c0.038,-0.049 0.091,-0.074 0.159,-0.074c0.071,0 0.125,0.026 0.162,0.079l0.006,0c-0.005,-0.039 -0.008,-0.07 -0.008,-0.092l0,-0.197l0.115,0l0,0.76l-0.09,0l-0.02,-0.071l-0.005,0c-0.037,0.054 -0.091,0.081 -0.162,0.081Zm0.031,-0.093c0.047,0 0.081,-0.013 0.103,-0.04c0.021,-0.026 0.033,-0.069 0.033,-0.129l0,-0.016c0,-0.068 -0.011,-0.116 -0.033,-0.145c-0.022,-0.029 -0.057,-0.043 -0.104,-0.043c-0.04,0 -0.072,0.016 -0.093,0.049c-0.022,0.033 -0.033,0.079 -0.033,0.14c0,0.06 0.011,0.105 0.032,0.137c0.021,0.031 0.053,0.047 0.095,0.047Z" style="fill:#d87843;fill-rule:nonzero;"/>
                </g>
                <g transform="matrix(32.863,0,0,32.863,1041.44,305.775)">
                    <path d="M0.318,0.01c-0.084,0 -0.15,-0.025 -0.197,-0.074c-0.048,-0.049 -0.071,-0.116 -0.071,-0.202c0,-0.088 0.022,-0.158 0.066,-0.208c0.044,-0.051 0.104,-0.076 0.181,-0.076c0.071,0 0.127,0.022 0.169,0.065c0.041,0.043 0.062,0.103 0.062,0.179l0,0.062l-0.36,0c0.002,0.052 0.016,0.093 0.042,0.121c0.027,0.028 0.065,0.042 0.113,0.042c0.032,0 0.062,-0.003 0.089,-0.009c0.028,-0.006 0.057,-0.016 0.089,-0.03l0,0.093c-0.028,0.013 -0.056,0.023 -0.085,0.028c-0.029,0.006 -0.061,0.009 -0.098,0.009Zm-0.021,-0.473c-0.037,0 -0.066,0.012 -0.088,0.035c-0.022,0.023 -0.035,0.057 -0.039,0.101l0.245,0c-0.001,-0.045 -0.011,-0.079 -0.032,-0.101c-0.021,-0.023 -0.05,-0.035 -0.086,-0.035Z" style="fill:#d87843;fill-rule:nonzero;"/>
                </g>
                <g transform="matrix(32.863,0,0,32.863,1060.38,305.775)">
                    <path d="M0.537,0l-0.115,0l0,-0.333c0,-0.041 -0.008,-0.072 -0.024,-0.093c-0.015,-0.02 -0.04,-0.03 -0.073,-0.03c-0.044,0 -0.077,0.014 -0.097,0.043c-0.021,0.029 -0.031,0.077 -0.031,0.144l0,0.269l-0.115,0l0,-0.54l0.09,0l0.016,0.071l0.006,0c0.015,-0.026 0.037,-0.046 0.065,-0.06c0.029,-0.014 0.06,-0.021 0.094,-0.021c0.083,0 0.138,0.029 0.165,0.085l0.008,0c0.016,-0.027 0.038,-0.047 0.067,-0.062c0.029,-0.015 0.062,-0.023 0.1,-0.023c0.064,0 0.111,0.016 0.141,0.049c0.029,0.033 0.044,0.082 0.044,0.149l0,0.352l-0.115,0l0,-0.333c0,-0.041 -0.008,-0.072 -0.023,-0.093c-0.016,-0.02 -0.041,-0.03 -0.074,-0.03c-0.045,0 -0.077,0.014 -0.098,0.042c-0.021,0.028 -0.031,0.07 -0.031,0.128l0,0.286Z" style="fill:#d87843;fill-rule:nonzero;"/>
                </g>
                <g transform="matrix(32.863,0,0,32.863,1091.8,305.775)">
                    <path d="M0.561,-0.271c0,0.088 -0.023,0.157 -0.068,0.207c-0.045,0.049 -0.108,0.074 -0.189,0.074c-0.05,0 -0.095,-0.012 -0.134,-0.034c-0.038,-0.023 -0.068,-0.056 -0.089,-0.099c-0.021,-0.042 -0.031,-0.092 -0.031,-0.148c0,-0.088 0.022,-0.156 0.067,-0.205c0.045,-0.049 0.108,-0.074 0.19,-0.074c0.078,0 0.14,0.025 0.186,0.076c0.045,0.05 0.068,0.118 0.068,0.203Zm-0.393,0c0,0.125 0.046,0.187 0.138,0.187c0.091,0 0.137,-0.062 0.137,-0.187c0,-0.123 -0.046,-0.185 -0.138,-0.185c-0.048,0 -0.083,0.016 -0.105,0.048c-0.021,0.032 -0.032,0.077 -0.032,0.137Z" style="fill:#d87843;fill-rule:nonzero;"/>
                </g>
            </g>
            <g transform="matrix(3.53897,0,0,1.49514,-2685.62,209.895)">
                <g transform="matrix(32.863,0,0,32.863,992.982,305.775)">
                    <path d="M0.356,0.01c-0.068,0 -0.121,-0.025 -0.159,-0.074l-0.007,0c0.004,0.046 0.007,0.073 0.007,0.083l0,0.221l-0.115,0l0,-0.78l0.093,0c0.002,0.01 0.008,0.034 0.016,0.072l0.006,0c0.036,-0.054 0.089,-0.082 0.161,-0.082c0.067,0 0.12,0.025 0.157,0.073c0.038,0.049 0.057,0.118 0.057,0.206c0,0.088 -0.019,0.157 -0.058,0.207c-0.038,0.049 -0.091,0.074 -0.158,0.074Zm-0.028,-0.466c-0.045,0 -0.079,0.013 -0.1,0.04c-0.021,0.027 -0.031,0.069 -0.031,0.128l0,0.017c0,0.066 0.01,0.113 0.031,0.143c0.021,0.029 0.055,0.044 0.102,0.044c0.04,0 0.07,-0.016 0.092,-0.049c0.021,-0.032 0.032,-0.079 0.032,-0.139c0,-0.061 -0.011,-0.106 -0.032,-0.137c-0.021,-0.032 -0.053,-0.047 -0.094,-0.047Z" style="fill:#d87843;fill-rule:nonzero;"/>
                </g>
                <g transform="matrix(32.863,0,0,32.863,1013.46,305.775)">
                    <path d="M0.42,0l-0.023,-0.075l-0.004,0c-0.026,0.033 -0.052,0.055 -0.079,0.067c-0.026,0.012 -0.06,0.018 -0.101,0.018c-0.053,0 -0.095,-0.015 -0.124,-0.043c-0.03,-0.029 -0.045,-0.069 -0.045,-0.122c0,-0.055 0.021,-0.097 0.062,-0.126c0.041,-0.028 0.104,-0.044 0.189,-0.046l0.093,-0.003l0,-0.029c0,-0.034 -0.008,-0.06 -0.024,-0.077c-0.016,-0.017 -0.041,-0.026 -0.075,-0.026c-0.028,0 -0.054,0.004 -0.08,0.012c-0.025,0.008 -0.049,0.018 -0.073,0.029l-0.037,-0.082c0.029,-0.015 0.061,-0.027 0.096,-0.035c0.035,-0.008 0.068,-0.012 0.099,-0.012c0.069,0 0.12,0.015 0.155,0.045c0.035,0.03 0.053,0.077 0.053,0.141l0,0.364l-0.082,0Zm-0.171,-0.078c0.042,0 0.075,-0.012 0.1,-0.035c0.026,-0.023 0.038,-0.056 0.038,-0.098l0,-0.047l-0.069,0.003c-0.054,0.002 -0.093,0.011 -0.118,0.027c-0.025,0.016 -0.037,0.041 -0.037,0.074c0,0.024 0.007,0.043 0.022,0.056c0.014,0.013 0.035,0.02 0.064,0.02Z" style="fill:#d87843;fill-rule:nonzero;"/>
                </g>
                <g transform="matrix(32.863,0,0,32.863,1032.52,305.775)">
                    <path d="M0.3,0.01c-0.082,0 -0.144,-0.024 -0.186,-0.072c-0.043,-0.047 -0.064,-0.116 -0.064,-0.205c0,-0.091 0.022,-0.161 0.066,-0.21c0.045,-0.048 0.109,-0.073 0.193,-0.073c0.057,0 0.108,0.011 0.154,0.032l-0.035,0.092c-0.048,-0.019 -0.088,-0.028 -0.12,-0.028c-0.093,0 -0.14,0.062 -0.14,0.186c0,0.06 0.012,0.106 0.035,0.136c0.023,0.031 0.057,0.046 0.102,0.046c0.051,0 0.1,-0.013 0.145,-0.038l0,0.1c-0.02,0.012 -0.042,0.021 -0.065,0.026c-0.024,0.005 -0.052,0.008 -0.085,0.008Z" style="fill:#d87843;fill-rule:nonzero;"/>
                </g>
                <g transform="matrix(32.863,0,0,32.863,1048.79,305.775)">
                    <path d="M0.193,-0.285l0.065,-0.081l0.163,-0.174l0.132,0l-0.217,0.232l0.231,0.308l-0.135,0l-0.173,-0.237l-0.063,0.052l0,0.185l-0.114,0l0,-0.76l0.114,0l0,0.371l-0.006,0.104l0.003,0Z" style="fill:#d87843;fill-rule:nonzero;"/>
                </g>
                <g transform="matrix(32.863,0,0,32.863,1067.58,305.775)">
                    <path d="M0.42,0l-0.023,-0.075l-0.004,0c-0.026,0.033 -0.052,0.055 -0.079,0.067c-0.026,0.012 -0.06,0.018 -0.101,0.018c-0.053,0 -0.095,-0.015 -0.124,-0.043c-0.03,-0.029 -0.045,-0.069 -0.045,-0.122c0,-0.055 0.021,-0.097 0.062,-0.126c0.041,-0.028 0.104,-0.044 0.189,-0.046l0.093,-0.003l0,-0.029c0,-0.034 -0.008,-0.06 -0.024,-0.077c-0.016,-0.017 -0.041,-0.026 -0.075,-0.026c-0.028,0 -0.054,0.004 -0.08,0.012c-0.025,0.008 -0.049,0.018 -0.073,0.029l-0.037,-0.082c0.029,-0.015 0.061,-0.027 0.096,-0.035c0.035,-0.008 0.068,-0.012 0.099,-0.012c0.069,0 0.12,0.015 0.155,0.045c0.035,0.03 0.053,0.077 0.053,0.141l0,0.364l-0.082,0Zm-0.171,-0.078c0.042,0 0.075,-0.012 0.1,-0.035c0.026,-0.023 0.038,-0.056 0.038,-0.098l0,-0.047l-0.069,0.003c-0.054,0.002 -0.093,0.011 -0.118,0.027c-0.025,0.016 -0.037,0.041 -0.037,0.074c0,0.024 0.007,0.043 0.022,0.056c0.014,0.013 0.035,0.02 0.064,0.02Z" style="fill:#d87843;fill-rule:nonzero;"/>
                </g>
                <g transform="matrix(32.863,0,0,32.863,1086.64,305.775)">
                    <path d="M0.538,-0.54l0,0.063l-0.092,0.017c0.008,0.011 0.015,0.025 0.021,0.042c0.005,0.017 0.008,0.034 0.008,0.053c0,0.055 -0.019,0.099 -0.058,0.131c-0.038,0.032 -0.091,0.048 -0.158,0.048c-0.017,0 -0.033,-0.001 -0.047,-0.004c-0.025,0.015 -0.037,0.033 -0.037,0.054c0,0.012 0.006,0.021 0.017,0.028c0.012,0.006 0.033,0.009 0.064,0.009l0.094,0c0.06,0 0.105,0.013 0.136,0.038c0.031,0.025 0.046,0.062 0.046,0.11c0,0.061 -0.025,0.108 -0.075,0.141c-0.051,0.034 -0.124,0.05 -0.219,0.05c-0.074,0 -0.13,-0.013 -0.169,-0.039c-0.038,-0.026 -0.058,-0.063 -0.058,-0.111c0,-0.033 0.011,-0.061 0.032,-0.084c0.021,-0.023 0.05,-0.038 0.088,-0.047c-0.015,-0.007 -0.028,-0.017 -0.038,-0.032c-0.01,-0.014 -0.015,-0.029 -0.015,-0.045c0,-0.02 0.006,-0.037 0.017,-0.051c0.012,-0.014 0.029,-0.028 0.051,-0.042c-0.028,-0.012 -0.051,-0.032 -0.068,-0.059c-0.018,-0.027 -0.026,-0.059 -0.026,-0.095c0,-0.059 0.018,-0.104 0.055,-0.136c0.037,-0.033 0.09,-0.049 0.158,-0.049c0.015,0 0.031,0.001 0.048,0.003c0.017,0.002 0.03,0.005 0.038,0.007l0.187,0Zm-0.424,0.624c0,0.025 0.011,0.044 0.033,0.057c0.023,0.013 0.054,0.02 0.094,0.02c0.063,0 0.109,-0.009 0.14,-0.027c0.03,-0.018 0.046,-0.041 0.046,-0.071c0,-0.023 -0.009,-0.04 -0.025,-0.05c-0.017,-0.01 -0.048,-0.015 -0.094,-0.015l-0.087,0c-0.033,0 -0.059,0.008 -0.078,0.023c-0.02,0.016 -0.029,0.037 -0.029,0.063Zm0.049,-0.449c0,0.034 0.009,0.06 0.026,0.078c0.018,0.018 0.043,0.027 0.075,0.027c0.067,0 0.1,-0.035 0.1,-0.106c0,-0.035 -0.008,-0.062 -0.025,-0.082c-0.016,-0.019 -0.041,-0.028 -0.075,-0.028c-0.033,0 -0.058,0.009 -0.075,0.028c-0.017,0.019 -0.026,0.047 -0.026,0.083Z" style="fill:#d87843;fill-rule:nonzero;"/>
                </g>
                <g transform="matrix(32.863,0,0,32.863,1104.92,305.775)">
                    <path d="M0.318,0.01c-0.084,0 -0.15,-0.025 -0.197,-0.074c-0.048,-0.049 -0.071,-0.116 -0.071,-0.202c0,-0.088 0.022,-0.158 0.066,-0.208c0.044,-0.051 0.104,-0.076 0.181,-0.076c0.071,0 0.127,0.022 0.169,0.065c0.041,0.043 0.062,0.103 0.062,0.179l0,0.062l-0.36,0c0.002,0.052 0.016,0.093 0.042,0.121c0.027,0.028 0.065,0.042 0.113,0.042c0.032,0 0.062,-0.003 0.089,-0.009c0.028,-0.006 0.057,-0.016 0.089,-0.03l0,0.093c-0.028,0.013 -0.056,0.023 -0.085,0.028c-0.029,0.006 -0.061,0.009 -0.098,0.009Zm-0.021,-0.473c-0.037,0 -0.066,0.012 -0.088,0.035c-0.022,0.023 -0.035,0.057 -0.039,0.101l0.245,0c-0.001,-0.045 -0.011,-0.079 -0.032,-0.101c-0.021,-0.023 -0.05,-0.035 -0.086,-0.035Z" style="fill:#d87843;fill-rule:nonzero;"/>
                </g>
                <g transform="matrix(32.863,0,0,32.863,1123.86,305.775)">
                    <path d="M0.445,-0.154c0,0.053 -0.019,0.093 -0.058,0.122c-0.038,0.028 -0.093,0.042 -0.165,0.042c-0.072,0 -0.13,-0.011 -0.173,-0.033l0,-0.099c0.063,0.029 0.122,0.044 0.177,0.044c0.071,0 0.106,-0.021 0.106,-0.064c0,-0.014 -0.004,-0.025 -0.012,-0.034c-0.007,-0.009 -0.02,-0.019 -0.038,-0.029c-0.018,-0.009 -0.043,-0.02 -0.075,-0.033c-0.062,-0.024 -0.104,-0.048 -0.126,-0.072c-0.022,-0.024 -0.033,-0.055 -0.033,-0.094c0,-0.046 0.018,-0.082 0.056,-0.107c0.037,-0.026 0.088,-0.039 0.152,-0.039c0.063,0 0.123,0.013 0.18,0.039l-0.037,0.086c-0.058,-0.024 -0.107,-0.036 -0.147,-0.036c-0.061,0 -0.091,0.017 -0.091,0.052c0,0.017 0.008,0.031 0.024,0.043c0.016,0.012 0.05,0.028 0.103,0.048c0.045,0.017 0.077,0.033 0.097,0.047c0.02,0.015 0.035,0.031 0.045,0.05c0.01,0.019 0.015,0.041 0.015,0.067Z" style="fill:#d87843;fill-rule:nonzero;"/>
                </g>
            </g>
            <g transform="matrix(3.53897,0,0,1.49514,-2675.71,-132.908)">
                <g transform="matrix(41.5111,0,0,41.5111,968.62,305.775)">
                    <path d="M0.318,0.01c-0.084,0 -0.15,-0.025 -0.197,-0.074c-0.048,-0.049 -0.071,-0.116 -0.071,-0.202c0,-0.088 0.022,-0.158 0.066,-0.208c0.044,-0.051 0.104,-0.076 0.181,-0.076c0.071,0 0.127,0.022 0.169,0.065c0.041,0.043 0.062,0.103 0.062,0.179l0,0.062l-0.36,0c0.002,0.052 0.016,0.093 0.042,0.121c0.027,0.028 0.065,0.042 0.113,0.042c0.032,0 0.062,-0.003 0.089,-0.009c0.028,-0.006 0.057,-0.016 0.089,-0.03l0,0.093c-0.028,0.013 -0.056,0.023 -0.085,0.028c-0.029,0.006 -0.061,0.009 -0.098,0.009Zm-0.021,-0.473c-0.037,0 -0.066,0.012 -0.088,0.035c-0.022,0.023 -0.035,0.057 -0.039,0.101l0.245,0c-0.001,-0.045 -0.011,-0.079 -0.032,-0.101c-0.021,-0.023 -0.05,-0.035 -0.086,-0.035Z" style="fill:#d87843;fill-rule:nonzero;"/>
                </g>
                <g transform="matrix(41.5111,0,0,41.5111,992.538,305.775)">
                    <path d="M0.202,-0.276l-0.181,-0.264l0.131,0l0.123,0.189l0.124,-0.189l0.13,0l-0.182,0.264l0.191,0.276l-0.13,0l-0.133,-0.202l-0.133,0.202l-0.13,0l0.19,-0.276Z" style="fill:#d87843;fill-rule:nonzero;"/>
                </g>
                <g transform="matrix(41.5111,0,0,41.5111,1015.4,305.775)">
                    <path d="M0.42,0l-0.023,-0.075l-0.004,0c-0.026,0.033 -0.052,0.055 -0.079,0.067c-0.026,0.012 -0.06,0.018 -0.101,0.018c-0.053,0 -0.095,-0.015 -0.124,-0.043c-0.03,-0.029 -0.045,-0.069 -0.045,-0.122c0,-0.055 0.021,-0.097 0.062,-0.126c0.041,-0.028 0.104,-0.044 0.189,-0.046l0.093,-0.003l0,-0.029c0,-0.034 -0.008,-0.06 -0.024,-0.077c-0.016,-0.017 -0.041,-0.026 -0.075,-0.026c-0.028,0 -0.054,0.004 -0.08,0.012c-0.025,0.008 -0.049,0.018 -0.073,0.029l-0.037,-0.082c0.029,-0.015 0.061,-0.027 0.096,-0.035c0.035,-0.008 0.068,-0.012 0.099,-0.012c0.069,0 0.12,0.015 0.155,0.045c0.035,0.03 0.053,0.077 0.053,0.141l0,0.364l-0.082,0Zm-0.171,-0.078c0.042,0 0.075,-0.012 0.1,-0.035c0.026,-0.023 0.038,-0.056 0.038,-0.098l0,-0.047l-0.069,0.003c-0.054,0.002 -0.093,0.011 -0.118,0.027c-0.025,0.016 -0.037,0.041 -0.037,0.074c0,0.024 0.007,0.043 0.022,0.056c0.014,0.013 0.035,0.02 0.064,0.02Z" style="fill:#d87843;fill-rule:nonzero;"/>
                </g>
                <g transform="matrix(41.5111,0,0,41.5111,1039.48,305.775)">
                    <path d="M0.537,0l-0.115,0l0,-0.333c0,-0.041 -0.008,-0.072 -0.024,-0.093c-0.015,-0.02 -0.04,-0.03 -0.073,-0.03c-0.044,0 -0.077,0.014 -0.097,0.043c-0.021,0.029 -0.031,0.077 -0.031,0.144l0,0.269l-0.115,0l0,-0.54l0.09,0l0.016,0.071l0.006,0c0.015,-0.026 0.037,-0.046 0.065,-0.06c0.029,-0.014 0.06,-0.021 0.094,-0.021c0.083,0 0.138,0.029 0.165,0.085l0.008,0c0.016,-0.027 0.038,-0.047 0.067,-0.062c0.029,-0.015 0.062,-0.023 0.1,-0.023c0.064,0 0.111,0.016 0.141,0.049c0.029,0.033 0.044,0.082 0.044,0.149l0,0.352l-0.115,0l0,-0.333c0,-0.041 -0.008,-0.072 -0.023,-0.093c-0.016,-0.02 -0.041,-0.03 -0.074,-0.03c-0.045,0 -0.077,0.014 -0.098,0.042c-0.021,0.028 -0.031,0.07 -0.031,0.128l0,0.286Z" style="fill:#d87843;fill-rule:nonzero;"/>
                </g>
                <g transform="matrix(41.5111,0,0,41.5111,1079.17,305.775)">
                    <path d="M0.356,0.01c-0.068,0 -0.121,-0.025 -0.159,-0.074l-0.007,0c0.004,0.046 0.007,0.073 0.007,0.083l0,0.221l-0.115,0l0,-0.78l0.093,0c0.002,0.01 0.008,0.034 0.016,0.072l0.006,0c0.036,-0.054 0.089,-0.082 0.161,-0.082c0.067,0 0.12,0.025 0.157,0.073c0.038,0.049 0.057,0.118 0.057,0.206c0,0.088 -0.019,0.157 -0.058,0.207c-0.038,0.049 -0.091,0.074 -0.158,0.074Zm-0.028,-0.466c-0.045,0 -0.079,0.013 -0.1,0.04c-0.021,0.027 -0.031,0.069 -0.031,0.128l0,0.017c0,0.066 0.01,0.113 0.031,0.143c0.021,0.029 0.055,0.044 0.102,0.044c0.04,0 0.07,-0.016 0.092,-0.049c0.021,-0.032 0.032,-0.079 0.032,-0.139c0,-0.061 -0.011,-0.106 -0.032,-0.137c-0.021,-0.032 -0.053,-0.047 -0.094,-0.047Z" style="fill:#d87843;fill-rule:nonzero;"/>
                </g>
                <g transform="matrix(41.5111,0,0,41.5111,1105.03,305.775)">
                    <rect x="0.082" y="-0.76" width="0.115" height="0.76" style="fill:#d87843;fill-rule:nonzero;"/>
                </g>
                <g transform="matrix(41.5111,0,0,41.5111,1116.6,305.775)">
                    <path d="M0.318,0.01c-0.084,0 -0.15,-0.025 -0.197,-0.074c-0.048,-0.049 -0.071,-0.116 -0.071,-0.202c0,-0.088 0.022,-0.158 0.066,-0.208c0.044,-0.051 0.104,-0.076 0.181,-0.076c0.071,0 0.127,0.022 0.169,0.065c0.041,0.043 0.062,0.103 0.062,0.179l0,0.062l-0.36,0c0.002,0.052 0.016,0.093 0.042,0.121c0.027,0.028 0.065,0.042 0.113,0.042c0.032,0 0.062,-0.003 0.089,-0.009c0.028,-0.006 0.057,-0.016 0.089,-0.03l0,0.093c-0.028,0.013 -0.056,0.023 -0.085,0.028c-0.029,0.006 -0.061,0.009 -0.098,0.009Zm-0.021,-0.473c-0.037,0 -0.066,0.012 -0.088,0.035c-0.022,0.023 -0.035,0.057 -0.039,0.101l0.245,0c-0.001,-0.045 -0.011,-0.079 -0.032,-0.101c-0.021,-0.023 -0.05,-0.035 -0.086,-0.035Z" style="fill:#d87843;fill-rule:nonzero;"/>
                </g>
                <g transform="matrix(41.5111,0,0,41.5111,1140.52,305.775)">
                    <path d="M0.381,0l-0.115,0l0,-0.461c0,-0.055 0.001,-0.099 0.004,-0.131c-0.007,0.008 -0.017,0.017 -0.028,0.026c-0.01,0.01 -0.047,0.039 -0.109,0.09l-0.058,-0.073l0.21,-0.165l0.096,0l0,0.714Z" style="fill:#d87843;fill-rule:nonzero;"/>
                </g>
            </g>
            <g transform="matrix(8.62603,0,0,3.64433,-2932.49,-903.424)">
                <g transform="matrix(20.3421,0,0,20.3421,380.661,300.824)">
                    <path d="M0.498,0l-0.404,0l0,-0.714l0.404,0l0,0.099l-0.287,0l0,0.194l0.269,0l0,0.098l-0.269,0l0,0.224l0.287,0l0,0.099Z" style="fill:#333;fill-rule:nonzero;"/>
                </g>
                <g transform="matrix(20.3421,0,0,20.3421,392.014,300.824)">
                    <path d="M0.202,-0.276l-0.181,-0.264l0.131,0l0.123,0.189l0.124,-0.189l0.13,0l-0.182,0.264l0.191,0.276l-0.13,0l-0.133,-0.202l-0.133,0.202l-0.13,0l0.19,-0.276Z" style="fill:#333;fill-rule:nonzero;"/>
                </g>
                <g transform="matrix(20.3421,0,0,20.3421,403.218,300.824)">
                    <path d="M0.42,0l-0.023,-0.075l-0.004,0c-0.026,0.033 -0.052,0.055 -0.079,0.067c-0.026,0.012 -0.06,0.018 -0.101,0.018c-0.053,0 -0.095,-0.015 -0.124,-0.043c-0.03,-0.029 -0.045,-0.069 -0.045,-0.122c0,-0.055 0.021,-0.097 0.062,-0.126c0.041,-0.028 0.104,-0.044 0.189,-0.046l0.093,-0.003l0,-0.029c0,-0.034 -0.008,-0.06 -0.024,-0.077c-0.016,-0.017 -0.041,-0.026 -0.075,-0.026c-0.028,0 -0.054,0.004 -0.08,0.012c-0.025,0.008 -0.049,0.018 -0.073,0.029l-0.037,-0.082c0.029,-0.015 0.061,-0.027 0.096,-0.035c0.035,-0.008 0.068,-0.012 0.099,-0.012c0.069,0 0.12,0.015 0.155,0.045c0.035,0.03 0.053,0.077 0.053,0.141l0,0.364l-0.082,0Zm-0.171,-0.078c0.042,0 0.075,-0.012 0.1,-0.035c0.026,-0.023 0.038,-0.056 0.038,-0.098l0,-0.047l-0.069,0.003c-0.054,0.002 -0.093,0.011 -0.118,0.027c-0.025,0.016 -0.037,0.041 -0.037,0.074c0,0.024 0.007,0.043 0.022,0.056c0.014,0.013 0.035,0.02 0.064,0.02Z" style="fill:#333;fill-rule:nonzero;"/>
                </g>
                <g transform="matrix(20.3421,0,0,20.3421,415.018,300.824)">
                    <path d="M0.537,0l-0.115,0l0,-0.333c0,-0.041 -0.008,-0.072 -0.024,-0.093c-0.015,-0.02 -0.04,-0.03 -0.073,-0.03c-0.044,0 -0.077,0.014 -0.097,0.043c-0.021,0.029 -0.031,0.077 -0.031,0.144l0,0.269l-0.115,0l0,-0.54l0.09,0l0.016,0.071l0.006,0c0.015,-0.026 0.037,-0.046 0.065,-0.06c0.029,-0.014 0.06,-0.021 0.094,-0.021c0.083,0 0.138,0.029 0.165,0.085l0.008,0c0.016,-0.027 0.038,-0.047 0.067,-0.062c0.029,-0.015 0.062,-0.023 0.1,-0.023c0.064,0 0.111,0.016 0.141,0.049c0.029,0.033 0.044,0.082 0.044,0.149l0,0.352l-0.115,0l0,-0.333c0,-0.041 -0.008,-0.072 -0.023,-0.093c-0.016,-0.02 -0.041,-0.03 -0.074,-0.03c-0.045,0 -0.077,0.014 -0.098,0.042c-0.021,0.028 -0.031,0.07 -0.031,0.128l0,0.286Z" style="fill:#333;fill-rule:nonzero;"/>
                </g>
                <g transform="matrix(20.3421,0,0,20.3421,434.466,300.824)">
                    <path d="M0.356,0.01c-0.068,0 -0.121,-0.025 -0.159,-0.074l-0.007,0c0.004,0.046 0.007,0.073 0.007,0.083l0,0.221l-0.115,0l0,-0.78l0.093,0c0.002,0.01 0.008,0.034 0.016,0.072l0.006,0c0.036,-0.054 0.089,-0.082 0.161,-0.082c0.067,0 0.12,0.025 0.157,0.073c0.038,0.049 0.057,0.118 0.057,0.206c0,0.088 -0.019,0.157 -0.058,0.207c-0.038,0.049 -0.091,0.074 -0.158,0.074Zm-0.028,-0.466c-0.045,0 -0.079,0.013 -0.1,0.04c-0.021,0.027 -0.031,0.069 -0.031,0.128l0,0.017c0,0.066 0.01,0.113 0.031,0.143c0.021,0.029 0.055,0.044 0.102,0.044c0.04,0 0.07,-0.016 0.092,-0.049c0.021,-0.032 0.032,-0.079 0.032,-0.139c0,-0.061 -0.011,-0.106 -0.032,-0.137c-0.021,-0.032 -0.053,-0.047 -0.094,-0.047Z" style="fill:#333;fill-rule:nonzero;"/>
                </g>
                <g transform="matrix(20.3421,0,0,20.3421,447.14,300.824)">
                    <rect x="0.082" y="-0.76" width="0.115" height="0.76" style="fill:#333;fill-rule:nonzero;"/>
                </g>
                <g transform="matrix(20.3421,0,0,20.3421,452.811,300.824)">
                    <path d="M0.318,0.01c-0.084,0 -0.15,-0.025 -0.197,-0.074c-0.048,-0.049 -0.071,-0.116 -0.071,-0.202c0,-0.088 0.022,-0.158 0.066,-0.208c0.044,-0.051 0.104,-0.076 0.181,-0.076c0.071,0 0.127,0.022 0.169,0.065c0.041,0.043 0.062,0.103 0.062,0.179l0,0.062l-0.36,0c0.002,0.052 0.016,0.093 0.042,0.121c0.027,0.028 0.065,0.042 0.113,0.042c0.032,0 0.062,-0.003 0.089,-0.009c0.028,-0.006 0.057,-0.016 0.089,-0.03l0,0.093c-0.028,0.013 -0.056,0.023 -0.085,0.028c-0.029,0.006 -0.061,0.009 -0.098,0.009Zm-0.021,-0.473c-0.037,0 -0.066,0.012 -0.088,0.035c-0.022,0.023 -0.035,0.057 -0.039,0.101l0.245,0c-0.001,-0.045 -0.011,-0.079 -0.032,-0.101c-0.021,-0.023 -0.05,-0.035 -0.086,-0.035Z" style="fill:#333;fill-rule:nonzero;"/>
                </g>
                <g transform="matrix(20.3421,0,0,20.3421,464.532,300.824)">
                    <path d="M0.381,0l-0.115,0l0,-0.461c0,-0.055 0.001,-0.099 0.004,-0.131c-0.007,0.008 -0.017,0.017 -0.028,0.026c-0.01,0.01 -0.047,0.039 -0.109,0.09l-0.058,-0.073l0.21,-0.165l0.096,0l0,0.714Z" style="fill:#333;fill-rule:nonzero;"/>
                </g>
                <g transform="matrix(20.3421,0,0,20.3421,481.427,300.824)">
                    <path d="M0.356,0.01c-0.068,0 -0.121,-0.025 -0.159,-0.074l-0.007,0c0.004,0.046 0.007,0.073 0.007,0.083l0,0.221l-0.115,0l0,-0.78l0.093,0c0.002,0.01 0.008,0.034 0.016,0.072l0.006,0c0.036,-0.054 0.089,-0.082 0.161,-0.082c0.067,0 0.12,0.025 0.157,0.073c0.038,0.049 0.057,0.118 0.057,0.206c0,0.088 -0.019,0.157 -0.058,0.207c-0.038,0.049 -0.091,0.074 -0.158,0.074Zm-0.028,-0.466c-0.045,0 -0.079,0.013 -0.1,0.04c-0.021,0.027 -0.031,0.069 -0.031,0.128l0,0.017c0,0.066 0.01,0.113 0.031,0.143c0.021,0.029 0.055,0.044 0.102,0.044c0.04,0 0.07,-0.016 0.092,-0.049c0.021,-0.032 0.032,-0.079 0.032,-0.139c0,-0.061 -0.011,-0.106 -0.032,-0.137c-0.021,-0.032 -0.053,-0.047 -0.094,-0.047Z" style="fill:#333;fill-rule:nonzero;"/>
                </g>
                <g transform="matrix(20.3421,0,0,20.3421,494.101,300.824)">
                    <path d="M0.356,-0.55c0.023,0 0.042,0.002 0.057,0.005l-0.011,0.107c-0.016,-0.004 -0.033,-0.006 -0.051,-0.006c-0.046,0 -0.083,0.015 -0.111,0.045c-0.029,0.03 -0.043,0.069 -0.043,0.117l0,0.282l-0.115,0l0,-0.54l0.09,0l0.015,0.095l0.006,0c0.018,-0.032 0.041,-0.058 0.07,-0.076c0.029,-0.019 0.06,-0.029 0.093,-0.029Z" style="fill:#333;fill-rule:nonzero;"/>
                </g>
                <g transform="matrix(20.3421,0,0,20.3421,502.872,300.824)">
                    <path d="M0.561,-0.271c0,0.088 -0.023,0.157 -0.068,0.207c-0.045,0.049 -0.108,0.074 -0.189,0.074c-0.05,0 -0.095,-0.012 -0.134,-0.034c-0.038,-0.023 -0.068,-0.056 -0.089,-0.099c-0.021,-0.042 -0.031,-0.092 -0.031,-0.148c0,-0.088 0.022,-0.156 0.067,-0.205c0.045,-0.049 0.108,-0.074 0.19,-0.074c0.078,0 0.14,0.025 0.186,0.076c0.045,0.05 0.068,0.118 0.068,0.203Zm-0.393,0c0,0.125 0.046,0.187 0.138,0.187c0.091,0 0.137,-0.062 0.137,-0.187c0,-0.123 -0.046,-0.185 -0.138,-0.185c-0.048,0 -0.083,0.016 -0.105,0.048c-0.021,0.032 -0.032,0.077 -0.032,0.137Z" style="fill:#333;fill-rule:nonzero;"/>
                </g>
                <g transform="matrix(20.3421,0,0,20.3421,515.298,300.824)">
                    <path d="M0.027,0.24c-0.035,0 -0.063,-0.004 -0.086,-0.012l0,-0.091c0.022,0.006 0.045,0.009 0.068,0.009c0.049,0 0.073,-0.028 0.073,-0.083l0,-0.603l0.115,0l0,0.611c0,0.055 -0.015,0.098 -0.044,0.126c-0.029,0.029 -0.071,0.043 -0.126,0.043Zm0.048,-0.923c0,-0.021 0.006,-0.036 0.017,-0.047c0.011,-0.012 0.027,-0.017 0.048,-0.017c0.02,0 0.036,0.005 0.047,0.017c0.011,0.011 0.017,0.026 0.017,0.047c0,0.019 -0.006,0.035 -0.017,0.046c-0.011,0.011 -0.027,0.017 -0.047,0.017c-0.021,0 -0.037,-0.006 -0.048,-0.017c-0.011,-0.011 -0.017,-0.027 -0.017,-0.046Z" style="fill:#333;fill-rule:nonzero;"/>
                </g>
                <g transform="matrix(20.3421,0,0,20.3421,520.969,300.824)">
                    <path d="M0.318,0.01c-0.084,0 -0.15,-0.025 -0.197,-0.074c-0.048,-0.049 -0.071,-0.116 -0.071,-0.202c0,-0.088 0.022,-0.158 0.066,-0.208c0.044,-0.051 0.104,-0.076 0.181,-0.076c0.071,0 0.127,0.022 0.169,0.065c0.041,0.043 0.062,0.103 0.062,0.179l0,0.062l-0.36,0c0.002,0.052 0.016,0.093 0.042,0.121c0.027,0.028 0.065,0.042 0.113,0.042c0.032,0 0.062,-0.003 0.089,-0.009c0.028,-0.006 0.057,-0.016 0.089,-0.03l0,0.093c-0.028,0.013 -0.056,0.023 -0.085,0.028c-0.029,0.006 -0.061,0.009 -0.098,0.009Zm-0.021,-0.473c-0.037,0 -0.066,0.012 -0.088,0.035c-0.022,0.023 -0.035,0.057 -0.039,0.101l0.245,0c-0.001,-0.045 -0.011,-0.079 -0.032,-0.101c-0.021,-0.023 -0.05,-0.035 -0.086,-0.035Z" style="fill:#333;fill-rule:nonzero;"/>
                </g>
                <g transform="matrix(20.3421,0,0,20.3421,532.69,300.824)">
                    <path d="M0.3,0.01c-0.082,0 -0.144,-0.024 -0.186,-0.072c-0.043,-0.047 -0.064,-0.116 -0.064,-0.205c0,-0.091 0.022,-0.161 0.066,-0.21c0.045,-0.048 0.109,-0.073 0.193,-0.073c0.057,0 0.108,0.011 0.154,0.032l-0.035,0.092c-0.048,-0.019 -0.088,-0.028 -0.12,-0.028c-0.093,0 -0.14,0.062 -0.14,0.186c0,0.06 0.012,0.106 0.035,0.136c0.023,0.031 0.057,0.046 0.102,0.046c0.051,0 0.1,-0.013 0.145,-0.038l0,0.1c-0.02,0.012 -0.042,0.021 -0.065,0.026c-0.024,0.005 -0.052,0.008 -0.085,0.008Z" style="fill:#333;fill-rule:nonzero;"/>
                </g>
                <g transform="matrix(20.3421,0,0,20.3421,542.762,300.824)">
                    <path d="M0.283,-0.083c0.028,0 0.056,-0.004 0.084,-0.013l0,0.086c-0.013,0.006 -0.029,0.01 -0.049,0.014c-0.02,0.004 -0.041,0.006 -0.062,0.006c-0.109,0 -0.163,-0.058 -0.163,-0.172l0,-0.291l-0.074,0l0,-0.051l0.079,-0.042l0.039,-0.114l0.071,0l0,0.12l0.154,0l0,0.087l-0.154,0l0,0.289c0,0.028 0.007,0.048 0.021,0.061c0.014,0.013 0.032,0.02 0.054,0.02Z" style="fill:#333;fill-rule:nonzero;"/>
                </g>
            </g>
            <g transform="matrix(3.53897,0,0,0.549207,414.782,15.5564)">
                <path d="M191,1237l0,180.5" style="fill:none;stroke:#f9a777;stroke-width:7.65px;"/>
            </g>
            <g transform="matrix(3.53897,0,0,0.79945,412.07,91.2786)">
                <path d="M191,1237l0,124" style="fill:none;stroke:#f9a777;stroke-width:7.19px;"/>
            </g>
            <g transform="matrix(3.53897,0,0,0.549207,413.49,-340.188)">
                <path d="M191,1237l0,180.5" style="fill:none;stroke:#f9a777;stroke-width:7.65px;"/>
            </g>
            <g transform="matrix(0.817168,0,0,0.816129,90.9738,48.6198)">
                <rect x="26" y="0" width="2397" height="1932" style="fill:none;stroke:#5f9ea7;stroke-width:27.51px;"/>
            </g>
            <g transform="matrix(2.12721,0,0,1.1598,-268.566,-495.879)">
                <ellipse cx="639" cy="1299" rx="110" ry="47" style="fill:none;stroke:#5f9ea7;stroke-opacity:0.5;stroke-width:16.62px;"/>
            </g>
            <g transform="matrix(1.47801,0,0,1.22207,86.5875,-210.961)">
                <ellipse cx="639" cy="1299" rx="110" ry="47" style="fill:none;stroke:#5f9ea7;stroke-opacity:0.5;stroke-width:17.77px;"/>
            </g>
        </g>
    </g>
</svg>
