<?xml version="1.0" encoding="UTF-8" standalone="no"?>
<!DOCTYPE svg PUBLIC "-//W3C//DTD SVG 1.1//EN" "http://www.w3.org/Graphics/SVG/1.1/DTD/svg11.dtd">
<svg width="100%" height="100%" viewBox="0 0 317 330" version="1.1" xmlns="http://www.w3.org/2000/svg" xmlns:xlink="http://www.w3.org/1999/xlink" xml:space="preserve" xmlns:serif="http://www.serif.com/" style="fill-rule:evenodd;clip-rule:evenodd;stroke-linecap:round;stroke-linejoin:round;stroke-miterlimit:1.5;">
    <g transform="matrix(1,0,0,1,-1596.81,-156.5)">
        <g id="Artboard-example4" serif:id="Artboard example4" transform="matrix(0.142536,0,0,0.197842,1596.81,156.5)">
            <rect x="0" y="0" width="2224" height="1668" style="fill:none;"/>
            <g transform="matrix(0.87568,0,0,0.815534,33.3585,40.4364)">
                <rect x="26" y="0" width="2397" height="1932" style="fill:none;stroke:#5f9ea7;stroke-width:27.73px;"/>
            </g>
            <g transform="matrix(2.65847,0,0,0.702327,398.204,-96.685)">
                <path d="M191,1237l-170.733,174.508" style="fill:none;stroke:#f9a777;stroke-width:7.01px;"/>
            </g>
            <g transform="matrix(-2.65847,0,0,0.702327,1413.74,-98.1813)">
                <path d="M191,1237l-170.733,174.508" style="fill:none;stroke:#f9a777;stroke-width:7.01px;"/>
            </g>
            <g transform="matrix(2.65847,0,0,0.710618,-132.979,268.347)">
                <path d="M191,1237l0,111.354" style="fill:none;stroke:#f9a777;stroke-width:7px;"/>
            </g>
            <g transform="matrix(2.65847,0,0,0.955001,887.376,-20.842)">
                <path d="M191,1223.27l63.711,211.709" style="fill:none;stroke:#f9a777;stroke-width:6.68px;"/>
            </g>
            <g transform="matrix(3.53586,0,0,1.47973,719.796,-683.049)">
                <path d="M191,1237l-73.412,136.634" style="fill:none;stroke:#f9a777;stroke-width:4.85px;"/>
            </g>
            <g transform="matrix(3.53586,0,0,1.47973,719.796,-683.049)">
                <path d="M191,1237l-190.2,136.634" style="fill:none;stroke:#f9a777;stroke-width:4.85px;"/>
            </g>
            <g transform="matrix(-3.53586,0,0,1.47973,2070.49,-683.049)">
                <path d="M191,1237l-151.079,136.634" style="fill:none;stroke:#f9a777;stroke-width:4.85px;"/>
            </g>
            <g transform="matrix(2.65847,0,0,0.438394,398.204,-132.875)">
                <path d="M191,1237l0,180.5" style="fill:none;stroke:#f9a777;stroke-width:7.28px;"/>
            </g>
            <g transform="matrix(5.36161,0,0,3.8628,413.931,1259.77)">
                <path d="M59.831,58.995c0,0.683 -0.565,1.258 -1.269,1.258l-16.992,0c-0.736,0 -1.301,-0.575 -1.301,-1.258l0,-25.225c0,-0.704 0.608,-1.259 1.301,-1.259l9.194,0l0,5.217c0,2.09 1.708,3.796 3.786,3.796l5.281,0l0,17.471Zm-6.581,-25.407l5.44,5.451l-4.14,0c-0.693,0 -1.3,-0.609 -1.3,-1.311l0,-4.14Zm3.222,19.744l-10.411,0l-2.4,0c-0.693,0 -1.259,0.555 -1.259,1.216c0,0.704 0.566,1.269 1.259,1.269l12.811,0c0.702,0 1.258,-0.565 1.258,-1.269c0,-0.661 -0.556,-1.216 -1.258,-1.216Zm0,-5.001l-0.736,0l-2.359,0l-9.716,0c-0.693,0 -1.259,0.553 -1.259,1.258c0,0.65 0.566,1.205 1.259,1.205l12.811,0c0.702,0 1.258,-0.555 1.258,-1.205c0,-0.705 -0.556,-1.258 -1.258,-1.258Zm5.832,-8.3c-0.126,-0.682 -0.478,-1.387 -1.044,-1.942l-7.007,-6.975c-0.566,-0.565 -1.311,-0.96 -2.048,-1.045l-0.086,-0.043l-10.549,0c-2.09,0 -3.786,1.697 -3.786,3.744l0,25.407c0.128,1.942 1.78,3.562 3.786,3.562l16.992,0c2.09,0 3.797,-1.654 3.797,-3.744l0,-18.868l-0.055,-0.096Z" style="fill:#f9a777;"/>
                <clipPath id="_clip1">
                    <path d="M59.831,58.995c0,0.683 -0.565,1.258 -1.269,1.258l-16.992,0c-0.736,0 -1.301,-0.575 -1.301,-1.258l0,-25.225c0,-0.704 0.608,-1.259 1.301,-1.259l9.194,0l0,5.217c0,2.09 1.708,3.796 3.786,3.796l5.281,0l0,17.471Zm-6.581,-25.407l5.44,5.451l-4.14,0c-0.693,0 -1.3,-0.609 -1.3,-1.311l0,-4.14Zm3.222,19.744l-10.411,0l-2.4,0c-0.693,0 -1.259,0.555 -1.259,1.216c0,0.704 0.566,1.269 1.259,1.269l12.811,0c0.702,0 1.258,-0.565 1.258,-1.269c0,-0.661 -0.556,-1.216 -1.258,-1.216Zm0,-5.001l-0.736,0l-2.359,0l-9.716,0c-0.693,0 -1.259,0.553 -1.259,1.258c0,0.65 0.566,1.205 1.259,1.205l12.811,0c0.702,0 1.258,-0.555 1.258,-1.205c0,-0.705 -0.556,-1.258 -1.258,-1.258Zm5.832,-8.3c-0.126,-0.682 -0.478,-1.387 -1.044,-1.942l-7.007,-6.975c-0.566,-0.565 -1.311,-0.96 -2.048,-1.045l-0.086,-0.043l-10.549,0c-2.09,0 -3.786,1.697 -3.786,3.744l0,25.407c0.128,1.942 1.78,3.562 3.786,3.562l16.992,0c2.09,0 3.797,-1.654 3.797,-3.744l0,-18.868l-0.055,-0.096Z"/>
                </clipPath>
                <g clip-path="url(#_clip1)">
                    <g transform="matrix(0.233664,0,0,0.169595,3.22515,-324.453)">
                        <path d="M191,1237l0,124" style="fill:none;stroke:#f9a777;stroke-width:64.09px;"/>
                    </g>
                    <g transform="matrix(0.233664,0,0,0.169595,3.22515,-208.789)">
                        <path d="M191,1237l0,124" style="fill:none;stroke:#f9a777;stroke-width:64.09px;"/>
                    </g>
                </g>
            </g>
            <g id="source" transform="matrix(0.355466,0,0,0.256097,1848.18,1752.55)">
                <g transform="matrix(1,0,0,1,-302.773,-1777.87)">
                    <rect x="125" y="300" width="750" height="500" style="fill:#f9a777;fill-rule:nonzero;"/>
                </g>
                <g transform="matrix(1,0,0,1,-302.773,-1792.8)">
                    <path d="M275,200l-150,0l0,80l230,0l-80,-80Z" style="fill:#f9a777;fill-rule:nonzero;"/>
                </g>
            </g>
            <g id="_-build" serif:id=" build" transform="matrix(0.355466,0,0,0.256097,1276.47,1757.61)">
                <g transform="matrix(1,0,0,1,279.264,-1797.61)">
                    <rect x="125" y="300" width="750" height="500" style="fill:#f9a777;fill-rule:nonzero;"/>
                </g>
                <g transform="matrix(1,0,0,1,279.264,-1812.54)">
                    <path d="M275,200l-150,0l0,80l230,0l-80,-80Z" style="fill:#f9a777;fill-rule:nonzero;"/>
                </g>
            </g>
            <g id="public" transform="matrix(0.355466,0,0,0.256097,504.743,1765.72)">
                <g transform="matrix(1,0,0,1,1266.08,-1829.3)">
                    <rect x="125" y="300" width="750" height="500" style="fill:#f9a777;fill-rule:nonzero;"/>
                </g>
                <g transform="matrix(1,0,0,1,1266.08,-1844.23)">
                    <path d="M275,200l-150,0l0,80l230,0l-80,-80Z" style="fill:#f9a777;fill-rule:nonzero;"/>
                </g>
            </g>
            <g id="web" transform="matrix(0.355466,0,0,0.256097,433.279,1186.85)">
                <g transform="matrix(1,0,0,1,2148.75,-1242.26)">
                    <rect x="125" y="300" width="750" height="500" style="fill:#f9a777;fill-rule:nonzero;"/>
                </g>
                <g transform="matrix(1,0,0,1,2148.75,-1242.26)">
                    <path d="M275,200l-150,0l0,80l230,0l-80,-80Z" style="fill:#f9a777;fill-rule:nonzero;"/>
                </g>
            </g>
            <g id="demo" transform="matrix(0.355466,0,0,0.256097,-1002.33,1263.74)">
                <g transform="matrix(1,0,0,1,3359.38,-1542.51)">
                    <rect x="125" y="300" width="750" height="500" style="fill:#f9a777;fill-rule:nonzero;"/>
                </g>
                <g transform="matrix(1,0,0,1,3359.38,-1542.51)">
                    <path d="M275,200l-150,0l0,80l230,0l-80,-80Z" style="fill:#f9a777;fill-rule:nonzero;"/>
                </g>
            </g>
            <g id="packages" transform="matrix(0.354165,0,0,0.25516,442.095,615.27)">
                <g transform="matrix(1,0,0,1,797.225,-631.19)">
                    <rect x="54.29" y="370.711" width="750" height="500" style="fill:#f9a777;fill-rule:nonzero;"/>
                </g>
                <g transform="matrix(1,0,0,1,797.225,-631.19)">
                    <path d="M204.29,270.711l-150,0l0,80l230,0l-80,-80Z" style="fill:#f9a777;fill-rule:nonzero;"/>
                </g>
                <g transform="matrix(1,0,0,1,797.225,-631.19)">
                    <path d="M945.71,229.288l0,500l-131.42,0l0,-368.58l-505.86,0l-100,-100l-12.72,0l0,-31.42l750,0Z" style="fill:#f9a777;fill-rule:nonzero;"/>
                </g>
                <g transform="matrix(1,0,0,1,797.225,-631.19)">
                    <path d="M345.711,129.289l-150,0l0,80l230,0l-80,-80Z" style="fill:#f9a777;fill-rule:nonzero;"/>
                </g>
            </g>
            <g transform="matrix(2.65847,0,0,1.91531,-939.943,971.509)">
                <g transform="matrix(30.0849,0,0,30.0849,1045.16,305.775)">
                    <path d="M0.445,-0.154c0,0.053 -0.019,0.093 -0.058,0.122c-0.038,0.028 -0.093,0.042 -0.165,0.042c-0.072,0 -0.13,-0.011 -0.173,-0.033l0,-0.099c0.063,0.029 0.122,0.044 0.177,0.044c0.071,0 0.106,-0.021 0.106,-0.064c0,-0.014 -0.004,-0.025 -0.012,-0.034c-0.007,-0.009 -0.02,-0.019 -0.038,-0.029c-0.018,-0.009 -0.043,-0.02 -0.075,-0.033c-0.062,-0.024 -0.104,-0.048 -0.126,-0.072c-0.022,-0.024 -0.033,-0.055 -0.033,-0.094c0,-0.046 0.018,-0.082 0.056,-0.107c0.037,-0.026 0.088,-0.039 0.152,-0.039c0.063,0 0.123,0.013 0.18,0.039l-0.037,0.086c-0.058,-0.024 -0.107,-0.036 -0.147,-0.036c-0.061,0 -0.091,0.017 -0.091,0.052c0,0.017 0.008,0.031 0.024,0.043c0.016,0.012 0.05,0.028 0.103,0.048c0.045,0.017 0.077,0.033 0.097,0.047c0.02,0.015 0.035,0.031 0.045,0.05c0.01,0.019 0.015,0.041 0.015,0.067Z" style="fill:#d87843;fill-rule:nonzero;"/>
                </g>
                <g transform="matrix(30.0849,0,0,30.0849,1059.81,305.775)">
                    <path d="M0.356,-0.55c0.023,0 0.042,0.002 0.057,0.005l-0.011,0.107c-0.016,-0.004 -0.033,-0.006 -0.051,-0.006c-0.046,0 -0.083,0.015 -0.111,0.045c-0.029,0.03 -0.043,0.069 -0.043,0.117l0,0.282l-0.115,0l0,-0.54l0.09,0l0.015,0.095l0.006,0c0.018,-0.032 0.041,-0.058 0.07,-0.076c0.029,-0.019 0.06,-0.029 0.093,-0.029Z" style="fill:#d87843;fill-rule:nonzero;"/>
                </g>
                <g transform="matrix(30.0849,0,0,30.0849,1072.78,305.775)">
                    <path d="M0.3,0.01c-0.082,0 -0.144,-0.024 -0.186,-0.072c-0.043,-0.047 -0.064,-0.116 -0.064,-0.205c0,-0.091 0.022,-0.161 0.066,-0.21c0.045,-0.048 0.109,-0.073 0.193,-0.073c0.057,0 0.108,0.011 0.154,0.032l-0.035,0.092c-0.048,-0.019 -0.088,-0.028 -0.12,-0.028c-0.093,0 -0.14,0.062 -0.14,0.186c0,0.06 0.012,0.106 0.035,0.136c0.023,0.031 0.057,0.046 0.102,0.046c0.051,0 0.1,-0.013 0.145,-0.038l0,0.1c-0.02,0.012 -0.042,0.021 -0.065,0.026c-0.024,0.005 -0.052,0.008 -0.085,0.008Z" style="fill:#d87843;fill-rule:nonzero;"/>
                </g>
            </g>
            <g transform="matrix(2.65847,0,0,1.91531,-1701.47,970.918)">
                <g transform="matrix(30.0849,0,0,30.0849,1022.29,305.775)">
                    <path d="M0.356,0.01c-0.068,0 -0.121,-0.025 -0.159,-0.074l-0.007,0c0.004,0.046 0.007,0.073 0.007,0.083l0,0.221l-0.115,0l0,-0.78l0.093,0c0.002,0.01 0.008,0.034 0.016,0.072l0.006,0c0.036,-0.054 0.089,-0.082 0.161,-0.082c0.067,0 0.12,0.025 0.157,0.073c0.038,0.049 0.057,0.118 0.057,0.206c0,0.088 -0.019,0.157 -0.058,0.207c-0.038,0.049 -0.091,0.074 -0.158,0.074Zm-0.028,-0.466c-0.045,0 -0.079,0.013 -0.1,0.04c-0.021,0.027 -0.031,0.069 -0.031,0.128l0,0.017c0,0.066 0.01,0.113 0.031,0.143c0.021,0.029 0.055,0.044 0.102,0.044c0.04,0 0.07,-0.016 0.092,-0.049c0.021,-0.032 0.032,-0.079 0.032,-0.139c0,-0.061 -0.011,-0.106 -0.032,-0.137c-0.021,-0.032 -0.053,-0.047 -0.094,-0.047Z" style="fill:#d87843;fill-rule:nonzero;"/>
                </g>
                <g transform="matrix(30.0849,0,0,30.0849,1041.03,305.775)">
                    <path d="M0.463,0l-0.016,-0.071l-0.006,0c-0.016,0.025 -0.039,0.045 -0.068,0.059c-0.03,0.015 -0.063,0.022 -0.101,0.022c-0.065,0 -0.114,-0.017 -0.147,-0.049c-0.032,-0.033 -0.048,-0.082 -0.048,-0.148l0,-0.353l0.116,0l0,0.333c0,0.041 0.008,0.072 0.025,0.093c0.017,0.021 0.044,0.031 0.08,0.031c0.048,0 0.083,-0.014 0.106,-0.043c0.023,-0.029 0.034,-0.077 0.034,-0.145l0,-0.269l0.115,0l0,0.54l-0.09,0Z" style="fill:#d87843;fill-rule:nonzero;"/>
                </g>
                <g transform="matrix(30.0849,0,0,30.0849,1060.13,305.775)">
                    <path d="M0.358,-0.55c0.067,0 0.12,0.025 0.157,0.073c0.038,0.049 0.057,0.118 0.057,0.206c0,0.089 -0.019,0.157 -0.057,0.207c-0.038,0.049 -0.091,0.074 -0.159,0.074c-0.068,0 -0.121,-0.025 -0.159,-0.074l-0.008,0l-0.021,0.064l-0.086,0l0,-0.76l0.115,0l0,0.181c0,0.013 -0.001,0.033 -0.002,0.059c-0.001,0.027 -0.002,0.044 -0.003,0.051l0.005,0c0.036,-0.054 0.09,-0.081 0.161,-0.081Zm-0.03,0.094c-0.046,0 -0.079,0.014 -0.1,0.041c-0.02,0.027 -0.031,0.072 -0.031,0.136l0,0.008c0,0.066 0.01,0.113 0.031,0.143c0.021,0.029 0.055,0.044 0.102,0.044c0.041,0 0.072,-0.016 0.093,-0.048c0.021,-0.033 0.031,-0.079 0.031,-0.14c0,-0.123 -0.042,-0.184 -0.126,-0.184Z" style="fill:#d87843;fill-rule:nonzero;"/>
                </g>
                <g transform="matrix(30.0849,0,0,30.0849,1078.88,305.775)">
                    <rect x="0.082" y="-0.76" width="0.115" height="0.76" style="fill:#d87843;fill-rule:nonzero;"/>
                </g>
                <g transform="matrix(30.0849,0,0,30.0849,1087.26,305.775)">
                    <path d="M0.197,0l-0.115,0l0,-0.54l0.115,0l0,0.54Zm-0.122,-0.683c0,-0.021 0.006,-0.036 0.017,-0.047c0.011,-0.012 0.027,-0.017 0.048,-0.017c0.02,0 0.036,0.005 0.047,0.017c0.011,0.011 0.017,0.026 0.017,0.047c0,0.019 -0.006,0.035 -0.017,0.046c-0.011,0.011 -0.027,0.017 -0.047,0.017c-0.021,0 -0.037,-0.006 -0.048,-0.017c-0.011,-0.011 -0.017,-0.027 -0.017,-0.046Z" style="fill:#d87843;fill-rule:nonzero;"/>
                </g>
                <g transform="matrix(30.0849,0,0,30.0849,1095.65,305.775)">
                    <path d="M0.3,0.01c-0.082,0 -0.144,-0.024 -0.186,-0.072c-0.043,-0.047 -0.064,-0.116 -0.064,-0.205c0,-0.091 0.022,-0.161 0.066,-0.21c0.045,-0.048 0.109,-0.073 0.193,-0.073c0.057,0 0.108,0.011 0.154,0.032l-0.035,0.092c-0.048,-0.019 -0.088,-0.028 -0.12,-0.028c-0.093,0 -0.14,0.062 -0.14,0.186c0,0.06 0.012,0.106 0.035,0.136c0.023,0.031 0.057,0.046 0.102,0.046c0.051,0 0.1,-0.013 0.145,-0.038l0,0.1c-0.02,0.012 -0.042,0.021 -0.065,0.026c-0.024,0.005 -0.052,0.008 -0.085,0.008Z" style="fill:#d87843;fill-rule:nonzero;"/>
                </g>
            </g>
            <g transform="matrix(2.65847,0,0,1.91531,-1289.68,977.558)">
                <g transform="matrix(30.0849,0,0,30.0849,1029.74,305.775)">
                    <path d="M0.358,-0.55c0.067,0 0.12,0.025 0.157,0.073c0.038,0.049 0.057,0.118 0.057,0.206c0,0.089 -0.019,0.157 -0.057,0.207c-0.038,0.049 -0.091,0.074 -0.159,0.074c-0.068,0 -0.121,-0.025 -0.159,-0.074l-0.008,0l-0.021,0.064l-0.086,0l0,-0.76l0.115,0l0,0.181c0,0.013 -0.001,0.033 -0.002,0.059c-0.001,0.027 -0.002,0.044 -0.003,0.051l0.005,0c0.036,-0.054 0.09,-0.081 0.161,-0.081Zm-0.03,0.094c-0.046,0 -0.079,0.014 -0.1,0.041c-0.02,0.027 -0.031,0.072 -0.031,0.136l0,0.008c0,0.066 0.01,0.113 0.031,0.143c0.021,0.029 0.055,0.044 0.102,0.044c0.041,0 0.072,-0.016 0.093,-0.048c0.021,-0.033 0.031,-0.079 0.031,-0.14c0,-0.123 -0.042,-0.184 -0.126,-0.184Z" style="fill:#d87843;fill-rule:nonzero;"/>
                </g>
                <g transform="matrix(30.0849,0,0,30.0849,1048.48,305.775)">
                    <path d="M0.463,0l-0.016,-0.071l-0.006,0c-0.016,0.025 -0.039,0.045 -0.068,0.059c-0.03,0.015 -0.063,0.022 -0.101,0.022c-0.065,0 -0.114,-0.017 -0.147,-0.049c-0.032,-0.033 -0.048,-0.082 -0.048,-0.148l0,-0.353l0.116,0l0,0.333c0,0.041 0.008,0.072 0.025,0.093c0.017,0.021 0.044,0.031 0.08,0.031c0.048,0 0.083,-0.014 0.106,-0.043c0.023,-0.029 0.034,-0.077 0.034,-0.145l0,-0.269l0.115,0l0,0.54l-0.09,0Z" style="fill:#d87843;fill-rule:nonzero;"/>
                </g>
                <g transform="matrix(30.0849,0,0,30.0849,1067.58,305.775)">
                    <path d="M0.197,0l-0.115,0l0,-0.54l0.115,0l0,0.54Zm-0.122,-0.683c0,-0.021 0.006,-0.036 0.017,-0.047c0.011,-0.012 0.027,-0.017 0.048,-0.017c0.02,0 0.036,0.005 0.047,0.017c0.011,0.011 0.017,0.026 0.017,0.047c0,0.019 -0.006,0.035 -0.017,0.046c-0.011,0.011 -0.027,0.017 -0.047,0.017c-0.021,0 -0.037,-0.006 -0.048,-0.017c-0.011,-0.011 -0.017,-0.027 -0.017,-0.046Z" style="fill:#d87843;fill-rule:nonzero;"/>
                </g>
                <g transform="matrix(30.0849,0,0,30.0849,1075.97,305.775)">
                    <rect x="0.082" y="-0.76" width="0.115" height="0.76" style="fill:#d87843;fill-rule:nonzero;"/>
                </g>
                <g transform="matrix(30.0849,0,0,30.0849,1084.35,305.775)">
                    <path d="M0.264,0.01c-0.067,0 -0.12,-0.025 -0.158,-0.073c-0.037,-0.049 -0.056,-0.118 -0.056,-0.206c0,-0.089 0.019,-0.158 0.057,-0.207c0.038,-0.049 0.091,-0.074 0.159,-0.074c0.071,0 0.125,0.026 0.162,0.079l0.006,0c-0.005,-0.039 -0.008,-0.07 -0.008,-0.092l0,-0.197l0.115,0l0,0.76l-0.09,0l-0.02,-0.071l-0.005,0c-0.037,0.054 -0.091,0.081 -0.162,0.081Zm0.031,-0.093c0.047,0 0.081,-0.013 0.103,-0.04c0.021,-0.026 0.033,-0.069 0.033,-0.129l0,-0.016c0,-0.068 -0.011,-0.116 -0.033,-0.145c-0.022,-0.029 -0.057,-0.043 -0.104,-0.043c-0.04,0 -0.072,0.016 -0.093,0.049c-0.022,0.033 -0.033,0.079 -0.033,0.14c0,0.06 0.011,0.105 0.032,0.137c0.021,0.031 0.053,0.047 0.095,0.047Z" style="fill:#d87843;fill-rule:nonzero;"/>
                </g>
            </g>
            <g transform="matrix(2.65847,0,0,1.91531,-2166.27,977.431)">
                <g transform="matrix(30.0849,0,0,30.0849,1009.31,305.775)">
                    <path d="M0.065,-0.061c0,-0.024 0.006,-0.042 0.018,-0.055c0.013,-0.012 0.031,-0.019 0.054,-0.019c0.024,0 0.042,0.007 0.054,0.02c0.013,0.013 0.019,0.031 0.019,0.054c0,0.023 -0.006,0.041 -0.019,0.055c-0.012,0.013 -0.03,0.02 -0.054,0.02c-0.023,0 -0.041,-0.007 -0.054,-0.02c-0.012,-0.013 -0.018,-0.032 -0.018,-0.055Z" style="fill:#d87843;fill-rule:nonzero;"/>
                </g>
                <g transform="matrix(30.0849,0,0,30.0849,1017.58,305.775)">
                    <path d="M0.197,0l-0.115,0l0,-0.54l0.115,0l0,0.54Zm-0.122,-0.683c0,-0.021 0.006,-0.036 0.017,-0.047c0.011,-0.012 0.027,-0.017 0.048,-0.017c0.02,0 0.036,0.005 0.047,0.017c0.011,0.011 0.017,0.026 0.017,0.047c0,0.019 -0.006,0.035 -0.017,0.046c-0.011,0.011 -0.027,0.017 -0.047,0.017c-0.021,0 -0.037,-0.006 -0.048,-0.017c-0.011,-0.011 -0.017,-0.027 -0.017,-0.046Z" style="fill:#d87843;fill-rule:nonzero;"/>
                </g>
                <g transform="matrix(30.0849,0,0,30.0849,1025.97,305.775)">
                    <path d="M0.557,0l-0.115,0l0,-0.332c0,-0.042 -0.008,-0.073 -0.025,-0.093c-0.017,-0.021 -0.044,-0.031 -0.08,-0.031c-0.049,0 -0.084,0.014 -0.107,0.043c-0.022,0.029 -0.033,0.077 -0.033,0.144l0,0.269l-0.115,0l0,-0.54l0.09,0l0.016,0.071l0.006,0c0.016,-0.026 0.039,-0.046 0.069,-0.06c0.03,-0.014 0.063,-0.021 0.1,-0.021c0.129,0 0.194,0.066 0.194,0.198l0,0.352Z" style="fill:#d87843;fill-rule:nonzero;"/>
                </g>
                <g transform="matrix(30.0849,0,0,30.0849,1045.07,305.775)">
                    <path d="M0.3,0.01c-0.082,0 -0.144,-0.024 -0.186,-0.072c-0.043,-0.047 -0.064,-0.116 -0.064,-0.205c0,-0.091 0.022,-0.161 0.066,-0.21c0.045,-0.048 0.109,-0.073 0.193,-0.073c0.057,0 0.108,0.011 0.154,0.032l-0.035,0.092c-0.048,-0.019 -0.088,-0.028 -0.12,-0.028c-0.093,0 -0.14,0.062 -0.14,0.186c0,0.06 0.012,0.106 0.035,0.136c0.023,0.031 0.057,0.046 0.102,0.046c0.051,0 0.1,-0.013 0.145,-0.038l0,0.1c-0.02,0.012 -0.042,0.021 -0.065,0.026c-0.024,0.005 -0.052,0.008 -0.085,0.008Z" style="fill:#d87843;fill-rule:nonzero;"/>
                </g>
                <g transform="matrix(30.0849,0,0,30.0849,1059.96,305.775)">
                    <rect x="0.082" y="-0.76" width="0.115" height="0.76" style="fill:#d87843;fill-rule:nonzero;"/>
                </g>
                <g transform="matrix(30.0849,0,0,30.0849,1068.35,305.775)">
                    <path d="M0.463,0l-0.016,-0.071l-0.006,0c-0.016,0.025 -0.039,0.045 -0.068,0.059c-0.03,0.015 -0.063,0.022 -0.101,0.022c-0.065,0 -0.114,-0.017 -0.147,-0.049c-0.032,-0.033 -0.048,-0.082 -0.048,-0.148l0,-0.353l0.116,0l0,0.333c0,0.041 0.008,0.072 0.025,0.093c0.017,0.021 0.044,0.031 0.08,0.031c0.048,0 0.083,-0.014 0.106,-0.043c0.023,-0.029 0.034,-0.077 0.034,-0.145l0,-0.269l0.115,0l0,0.54l-0.09,0Z" style="fill:#d87843;fill-rule:nonzero;"/>
                </g>
                <g transform="matrix(30.0849,0,0,30.0849,1087.45,305.775)">
                    <path d="M0.264,0.01c-0.067,0 -0.12,-0.025 -0.158,-0.073c-0.037,-0.049 -0.056,-0.118 -0.056,-0.206c0,-0.089 0.019,-0.158 0.057,-0.207c0.038,-0.049 0.091,-0.074 0.159,-0.074c0.071,0 0.125,0.026 0.162,0.079l0.006,0c-0.005,-0.039 -0.008,-0.07 -0.008,-0.092l0,-0.197l0.115,0l0,0.76l-0.09,0l-0.02,-0.071l-0.005,0c-0.037,0.054 -0.091,0.081 -0.162,0.081Zm0.031,-0.093c0.047,0 0.081,-0.013 0.103,-0.04c0.021,-0.026 0.033,-0.069 0.033,-0.129l0,-0.016c0,-0.068 -0.011,-0.116 -0.033,-0.145c-0.022,-0.029 -0.057,-0.043 -0.104,-0.043c-0.04,0 -0.072,0.016 -0.093,0.049c-0.022,0.033 -0.033,0.079 -0.033,0.14c0,0.06 0.011,0.105 0.032,0.137c0.021,0.031 0.053,0.047 0.095,0.047Z" style="fill:#d87843;fill-rule:nonzero;"/>
                </g>
                <g transform="matrix(30.0849,0,0,30.0849,1106.19,305.775)">
                    <path d="M0.318,0.01c-0.084,0 -0.15,-0.025 -0.197,-0.074c-0.048,-0.049 -0.071,-0.116 -0.071,-0.202c0,-0.088 0.022,-0.158 0.066,-0.208c0.044,-0.051 0.104,-0.076 0.181,-0.076c0.071,0 0.127,0.022 0.169,0.065c0.041,0.043 0.062,0.103 0.062,0.179l0,0.062l-0.36,0c0.002,0.052 0.016,0.093 0.042,0.121c0.027,0.028 0.065,0.042 0.113,0.042c0.032,0 0.062,-0.003 0.089,-0.009c0.028,-0.006 0.057,-0.016 0.089,-0.03l0,0.093c-0.028,0.013 -0.056,0.023 -0.085,0.028c-0.029,0.006 -0.061,0.009 -0.098,0.009Zm-0.021,-0.473c-0.037,0 -0.066,0.012 -0.088,0.035c-0.022,0.023 -0.035,0.057 -0.039,0.101l0.245,0c-0.001,-0.045 -0.011,-0.079 -0.032,-0.101c-0.021,-0.023 -0.05,-0.035 -0.086,-0.035Z" style="fill:#d87843;fill-rule:nonzero;"/>
                </g>
            </g>
            <g transform="matrix(2.65847,0,0,1.91531,-1440.39,542.814)">
                <g transform="matrix(30.0849,0,0,30.0849,1036.09,305.775)">
                    <path d="M0.525,0l-0.07,-0.252c-0.008,-0.027 -0.024,-0.089 -0.046,-0.186l-0.004,0c-0.019,0.088 -0.034,0.15 -0.045,0.187l-0.072,0.251l-0.127,0l-0.151,-0.54l0.117,0l0.069,0.266c0.015,0.066 0.026,0.122 0.033,0.169l0.003,0c0.003,-0.024 0.008,-0.051 0.015,-0.082c0.006,-0.031 0.012,-0.054 0.017,-0.069l0.082,-0.284l0.126,0l0.08,0.284c0.005,0.016 0.011,0.041 0.018,0.073c0.007,0.033 0.012,0.059 0.013,0.077l0.004,0c0.005,-0.04 0.016,-0.096 0.034,-0.168l0.07,-0.266l0.115,0l-0.152,0.54l-0.129,0Z" style="fill:#d87843;fill-rule:nonzero;"/>
                </g>
                <g transform="matrix(30.0849,0,0,30.0849,1060.67,305.775)">
                    <path d="M0.318,0.01c-0.084,0 -0.15,-0.025 -0.197,-0.074c-0.048,-0.049 -0.071,-0.116 -0.071,-0.202c0,-0.088 0.022,-0.158 0.066,-0.208c0.044,-0.051 0.104,-0.076 0.181,-0.076c0.071,0 0.127,0.022 0.169,0.065c0.041,0.043 0.062,0.103 0.062,0.179l0,0.062l-0.36,0c0.002,0.052 0.016,0.093 0.042,0.121c0.027,0.028 0.065,0.042 0.113,0.042c0.032,0 0.062,-0.003 0.089,-0.009c0.028,-0.006 0.057,-0.016 0.089,-0.03l0,0.093c-0.028,0.013 -0.056,0.023 -0.085,0.028c-0.029,0.006 -0.061,0.009 -0.098,0.009Zm-0.021,-0.473c-0.037,0 -0.066,0.012 -0.088,0.035c-0.022,0.023 -0.035,0.057 -0.039,0.101l0.245,0c-0.001,-0.045 -0.011,-0.079 -0.032,-0.101c-0.021,-0.023 -0.05,-0.035 -0.086,-0.035Z" style="fill:#d87843;fill-rule:nonzero;"/>
                </g>
                <g transform="matrix(30.0849,0,0,30.0849,1078,305.775)">
                    <path d="M0.358,-0.55c0.067,0 0.12,0.025 0.157,0.073c0.038,0.049 0.057,0.118 0.057,0.206c0,0.089 -0.019,0.157 -0.057,0.207c-0.038,0.049 -0.091,0.074 -0.159,0.074c-0.068,0 -0.121,-0.025 -0.159,-0.074l-0.008,0l-0.021,0.064l-0.086,0l0,-0.76l0.115,0l0,0.181c0,0.013 -0.001,0.033 -0.002,0.059c-0.001,0.027 -0.002,0.044 -0.003,0.051l0.005,0c0.036,-0.054 0.09,-0.081 0.161,-0.081Zm-0.03,0.094c-0.046,0 -0.079,0.014 -0.1,0.041c-0.02,0.027 -0.031,0.072 -0.031,0.136l0,0.008c0,0.066 0.01,0.113 0.031,0.143c0.021,0.029 0.055,0.044 0.102,0.044c0.041,0 0.072,-0.016 0.093,-0.048c0.021,-0.033 0.031,-0.079 0.031,-0.14c0,-0.123 -0.042,-0.184 -0.126,-0.184Z" style="fill:#d87843;fill-rule:nonzero;"/>
                </g>
            </g>
            <g transform="matrix(2.65847,0,0,1.91531,-2460.26,542.814)">
                <g transform="matrix(30.0849,0,0,30.0849,1024.81,305.775)">
                    <path d="M0.264,0.01c-0.067,0 -0.12,-0.025 -0.158,-0.073c-0.037,-0.049 -0.056,-0.118 -0.056,-0.206c0,-0.089 0.019,-0.158 0.057,-0.207c0.038,-0.049 0.091,-0.074 0.159,-0.074c0.071,0 0.125,0.026 0.162,0.079l0.006,0c-0.005,-0.039 -0.008,-0.07 -0.008,-0.092l0,-0.197l0.115,0l0,0.76l-0.09,0l-0.02,-0.071l-0.005,0c-0.037,0.054 -0.091,0.081 -0.162,0.081Zm0.031,-0.093c0.047,0 0.081,-0.013 0.103,-0.04c0.021,-0.026 0.033,-0.069 0.033,-0.129l0,-0.016c0,-0.068 -0.011,-0.116 -0.033,-0.145c-0.022,-0.029 -0.057,-0.043 -0.104,-0.043c-0.04,0 -0.072,0.016 -0.093,0.049c-0.022,0.033 -0.033,0.079 -0.033,0.14c0,0.06 0.011,0.105 0.032,0.137c0.021,0.031 0.053,0.047 0.095,0.047Z" style="fill:#d87843;fill-rule:nonzero;"/>
                </g>
                <g transform="matrix(30.0849,0,0,30.0849,1043.55,305.775)">
                    <path d="M0.318,0.01c-0.084,0 -0.15,-0.025 -0.197,-0.074c-0.048,-0.049 -0.071,-0.116 -0.071,-0.202c0,-0.088 0.022,-0.158 0.066,-0.208c0.044,-0.051 0.104,-0.076 0.181,-0.076c0.071,0 0.127,0.022 0.169,0.065c0.041,0.043 0.062,0.103 0.062,0.179l0,0.062l-0.36,0c0.002,0.052 0.016,0.093 0.042,0.121c0.027,0.028 0.065,0.042 0.113,0.042c0.032,0 0.062,-0.003 0.089,-0.009c0.028,-0.006 0.057,-0.016 0.089,-0.03l0,0.093c-0.028,0.013 -0.056,0.023 -0.085,0.028c-0.029,0.006 -0.061,0.009 -0.098,0.009Zm-0.021,-0.473c-0.037,0 -0.066,0.012 -0.088,0.035c-0.022,0.023 -0.035,0.057 -0.039,0.101l0.245,0c-0.001,-0.045 -0.011,-0.079 -0.032,-0.101c-0.021,-0.023 -0.05,-0.035 -0.086,-0.035Z" style="fill:#d87843;fill-rule:nonzero;"/>
                </g>
                <g transform="matrix(30.0849,0,0,30.0849,1060.89,305.775)">
                    <path d="M0.537,0l-0.115,0l0,-0.333c0,-0.041 -0.008,-0.072 -0.024,-0.093c-0.015,-0.02 -0.04,-0.03 -0.073,-0.03c-0.044,0 -0.077,0.014 -0.097,0.043c-0.021,0.029 -0.031,0.077 -0.031,0.144l0,0.269l-0.115,0l0,-0.54l0.09,0l0.016,0.071l0.006,0c0.015,-0.026 0.037,-0.046 0.065,-0.06c0.029,-0.014 0.06,-0.021 0.094,-0.021c0.083,0 0.138,0.029 0.165,0.085l0.008,0c0.016,-0.027 0.038,-0.047 0.067,-0.062c0.029,-0.015 0.062,-0.023 0.1,-0.023c0.064,0 0.111,0.016 0.141,0.049c0.029,0.033 0.044,0.082 0.044,0.149l0,0.352l-0.115,0l0,-0.333c0,-0.041 -0.008,-0.072 -0.023,-0.093c-0.016,-0.02 -0.041,-0.03 -0.074,-0.03c-0.045,0 -0.077,0.014 -0.098,0.042c-0.021,0.028 -0.031,0.07 -0.031,0.128l0,0.286Z" style="fill:#d87843;fill-rule:nonzero;"/>
                </g>
                <g transform="matrix(30.0849,0,0,30.0849,1089.65,305.775)">
                    <path d="M0.561,-0.271c0,0.088 -0.023,0.157 -0.068,0.207c-0.045,0.049 -0.108,0.074 -0.189,0.074c-0.05,0 -0.095,-0.012 -0.134,-0.034c-0.038,-0.023 -0.068,-0.056 -0.089,-0.099c-0.021,-0.042 -0.031,-0.092 -0.031,-0.148c0,-0.088 0.022,-0.156 0.067,-0.205c0.045,-0.049 0.108,-0.074 0.19,-0.074c0.078,0 0.14,0.025 0.186,0.076c0.045,0.05 0.068,0.118 0.068,0.203Zm-0.393,0c0,0.125 0.046,0.187 0.138,0.187c0.091,0 0.137,-0.062 0.137,-0.187c0,-0.123 -0.046,-0.185 -0.138,-0.185c-0.048,0 -0.083,0.016 -0.105,0.048c-0.021,0.032 -0.032,0.077 -0.032,0.137Z" style="fill:#d87843;fill-rule:nonzero;"/>
                </g>
            </g>
            <g transform="matrix(2.65847,0,0,1.91531,-2460.26,710.114)">
                <g transform="matrix(30.0849,0,0,30.0849,978.118,305.775)">
                    <path d="M0.04,-0.274c0,-0.086 0.013,-0.167 0.038,-0.242c0.025,-0.075 0.061,-0.141 0.109,-0.198l0.1,0c-0.045,0.061 -0.08,0.13 -0.104,0.206c-0.024,0.076 -0.036,0.154 -0.036,0.233c0,0.08 0.012,0.157 0.036,0.231c0.024,0.075 0.059,0.142 0.103,0.202l-0.099,0c-0.048,-0.055 -0.084,-0.12 -0.109,-0.194c-0.025,-0.074 -0.038,-0.153 -0.038,-0.238Z" style="fill:#333;fill-rule:nonzero;"/>
                </g>
                <g transform="matrix(30.0849,0,0,30.0849,987.651,305.775)">
                    <path d="M0.42,0l-0.023,-0.075l-0.004,0c-0.026,0.033 -0.052,0.055 -0.079,0.067c-0.026,0.012 -0.06,0.018 -0.101,0.018c-0.053,0 -0.095,-0.015 -0.124,-0.043c-0.03,-0.029 -0.045,-0.069 -0.045,-0.122c0,-0.055 0.021,-0.097 0.062,-0.126c0.041,-0.028 0.104,-0.044 0.189,-0.046l0.093,-0.003l0,-0.029c0,-0.034 -0.008,-0.06 -0.024,-0.077c-0.016,-0.017 -0.041,-0.026 -0.075,-0.026c-0.028,0 -0.054,0.004 -0.08,0.012c-0.025,0.008 -0.049,0.018 -0.073,0.029l-0.037,-0.082c0.029,-0.015 0.061,-0.027 0.096,-0.035c0.035,-0.008 0.068,-0.012 0.099,-0.012c0.069,0 0.12,0.015 0.155,0.045c0.035,0.03 0.053,0.077 0.053,0.141l0,0.364l-0.082,0Zm-0.171,-0.078c0.042,0 0.075,-0.012 0.1,-0.035c0.026,-0.023 0.038,-0.056 0.038,-0.098l0,-0.047l-0.069,0.003c-0.054,0.002 -0.093,0.011 -0.118,0.027c-0.025,0.016 -0.037,0.041 -0.037,0.074c0,0.024 0.007,0.043 0.022,0.056c0.014,0.013 0.035,0.02 0.064,0.02Z" style="fill:#333;fill-rule:nonzero;"/>
                </g>
                <g transform="matrix(30.0849,0,0,30.0849,1005.1,305.775)">
                    <path d="M0.3,0.01c-0.082,0 -0.144,-0.024 -0.186,-0.072c-0.043,-0.047 -0.064,-0.116 -0.064,-0.205c0,-0.091 0.022,-0.161 0.066,-0.21c0.045,-0.048 0.109,-0.073 0.193,-0.073c0.057,0 0.108,0.011 0.154,0.032l-0.035,0.092c-0.048,-0.019 -0.088,-0.028 -0.12,-0.028c-0.093,0 -0.14,0.062 -0.14,0.186c0,0.06 0.012,0.106 0.035,0.136c0.023,0.031 0.057,0.046 0.102,0.046c0.051,0 0.1,-0.013 0.145,-0.038l0,0.1c-0.02,0.012 -0.042,0.021 -0.065,0.026c-0.024,0.005 -0.052,0.008 -0.085,0.008Z" style="fill:#333;fill-rule:nonzero;"/>
                </g>
                <g transform="matrix(30.0849,0,0,30.0849,1020,305.775)">
                    <path d="M0.283,-0.083c0.028,0 0.056,-0.004 0.084,-0.013l0,0.086c-0.013,0.006 -0.029,0.01 -0.049,0.014c-0.02,0.004 -0.041,0.006 -0.062,0.006c-0.109,0 -0.163,-0.058 -0.163,-0.172l0,-0.291l-0.074,0l0,-0.051l0.079,-0.042l0.039,-0.114l0.071,0l0,0.12l0.154,0l0,0.087l-0.154,0l0,0.289c0,0.028 0.007,0.048 0.021,0.061c0.014,0.013 0.032,0.02 0.054,0.02Z" style="fill:#333;fill-rule:nonzero;"/>
                </g>
                <g transform="matrix(30.0849,0,0,30.0849,1031.82,305.775)">
                    <path d="M0.197,0l-0.115,0l0,-0.54l0.115,0l0,0.54Zm-0.122,-0.683c0,-0.021 0.006,-0.036 0.017,-0.047c0.011,-0.012 0.027,-0.017 0.048,-0.017c0.02,0 0.036,0.005 0.047,0.017c0.011,0.011 0.017,0.026 0.017,0.047c0,0.019 -0.006,0.035 -0.017,0.046c-0.011,0.011 -0.027,0.017 -0.047,0.017c-0.021,0 -0.037,-0.006 -0.048,-0.017c-0.011,-0.011 -0.017,-0.027 -0.017,-0.046Z" style="fill:#333;fill-rule:nonzero;"/>
                </g>
                <g transform="matrix(30.0849,0,0,30.0849,1040.21,305.775)">
                    <path d="M0.561,-0.271c0,0.088 -0.023,0.157 -0.068,0.207c-0.045,0.049 -0.108,0.074 -0.189,0.074c-0.05,0 -0.095,-0.012 -0.134,-0.034c-0.038,-0.023 -0.068,-0.056 -0.089,-0.099c-0.021,-0.042 -0.031,-0.092 -0.031,-0.148c0,-0.088 0.022,-0.156 0.067,-0.205c0.045,-0.049 0.108,-0.074 0.19,-0.074c0.078,0 0.14,0.025 0.186,0.076c0.045,0.05 0.068,0.118 0.068,0.203Zm-0.393,0c0,0.125 0.046,0.187 0.138,0.187c0.091,0 0.137,-0.062 0.137,-0.187c0,-0.123 -0.046,-0.185 -0.138,-0.185c-0.048,0 -0.083,0.016 -0.105,0.048c-0.021,0.032 -0.032,0.077 -0.032,0.137Z" style="fill:#333;fill-rule:nonzero;"/>
                </g>
                <g transform="matrix(30.0849,0,0,30.0849,1058.59,305.775)">
                    <path d="M0.557,0l-0.115,0l0,-0.332c0,-0.042 -0.008,-0.073 -0.025,-0.093c-0.017,-0.021 -0.044,-0.031 -0.08,-0.031c-0.049,0 -0.084,0.014 -0.107,0.043c-0.022,0.029 -0.033,0.077 -0.033,0.144l0,0.269l-0.115,0l0,-0.54l0.09,0l0.016,0.071l0.006,0c0.016,-0.026 0.039,-0.046 0.069,-0.06c0.03,-0.014 0.063,-0.021 0.1,-0.021c0.129,0 0.194,0.066 0.194,0.198l0,0.352Z" style="fill:#333;fill-rule:nonzero;"/>
                </g>
                <g transform="matrix(30.0849,0,0,30.0849,1085.5,305.775)">
                    <path d="M0.353,-0.453l-0.132,0l0,0.453l-0.115,0l0,-0.453l-0.089,0l0,-0.054l0.089,-0.035l0,-0.035c0,-0.064 0.015,-0.111 0.045,-0.142c0.03,-0.031 0.076,-0.046 0.137,-0.046c0.04,0 0.08,0.007 0.119,0.02l-0.03,0.087c-0.028,-0.009 -0.055,-0.014 -0.081,-0.014c-0.026,0 -0.045,0.008 -0.057,0.024c-0.012,0.016 -0.018,0.041 -0.018,0.073l0,0.035l0.132,0l0,0.087Zm0.207,0.453l-0.115,0l0,-0.54l0.115,0l0,0.54Zm-0.122,-0.683c0,-0.021 0.006,-0.036 0.017,-0.047c0.011,-0.012 0.027,-0.017 0.048,-0.017c0.02,0 0.036,0.005 0.047,0.017c0.011,0.011 0.017,0.026 0.017,0.047c0,0.019 -0.006,0.035 -0.017,0.046c-0.011,0.011 -0.027,0.017 -0.047,0.017c-0.021,0 -0.037,-0.006 -0.048,-0.017c-0.011,-0.011 -0.017,-0.027 -0.017,-0.046Z" style="fill:#333;fill-rule:nonzero;"/>
                </g>
                <g transform="matrix(30.0849,0,0,30.0849,1104.82,305.775)">
                    <rect x="0.082" y="-0.76" width="0.115" height="0.76" style="fill:#333;fill-rule:nonzero;"/>
                </g>
                <g transform="matrix(30.0849,0,0,30.0849,1113.21,305.775)">
                    <path d="M0.318,0.01c-0.084,0 -0.15,-0.025 -0.197,-0.074c-0.048,-0.049 -0.071,-0.116 -0.071,-0.202c0,-0.088 0.022,-0.158 0.066,-0.208c0.044,-0.051 0.104,-0.076 0.181,-0.076c0.071,0 0.127,0.022 0.169,0.065c0.041,0.043 0.062,0.103 0.062,0.179l0,0.062l-0.36,0c0.002,0.052 0.016,0.093 0.042,0.121c0.027,0.028 0.065,0.042 0.113,0.042c0.032,0 0.062,-0.003 0.089,-0.009c0.028,-0.006 0.057,-0.016 0.089,-0.03l0,0.093c-0.028,0.013 -0.056,0.023 -0.085,0.028c-0.029,0.006 -0.061,0.009 -0.098,0.009Zm-0.021,-0.473c-0.037,0 -0.066,0.012 -0.088,0.035c-0.022,0.023 -0.035,0.057 -0.039,0.101l0.245,0c-0.001,-0.045 -0.011,-0.079 -0.032,-0.101c-0.021,-0.023 -0.05,-0.035 -0.086,-0.035Z" style="fill:#333;fill-rule:nonzero;"/>
                </g>
                <g transform="matrix(30.0849,0,0,30.0849,1130.54,305.775)">
                    <path d="M0.445,-0.154c0,0.053 -0.019,0.093 -0.058,0.122c-0.038,0.028 -0.093,0.042 -0.165,0.042c-0.072,0 -0.13,-0.011 -0.173,-0.033l0,-0.099c0.063,0.029 0.122,0.044 0.177,0.044c0.071,0 0.106,-0.021 0.106,-0.064c0,-0.014 -0.004,-0.025 -0.012,-0.034c-0.007,-0.009 -0.02,-0.019 -0.038,-0.029c-0.018,-0.009 -0.043,-0.02 -0.075,-0.033c-0.062,-0.024 -0.104,-0.048 -0.126,-0.072c-0.022,-0.024 -0.033,-0.055 -0.033,-0.094c0,-0.046 0.018,-0.082 0.056,-0.107c0.037,-0.026 0.088,-0.039 0.152,-0.039c0.063,0 0.123,0.013 0.18,0.039l-0.037,0.086c-0.058,-0.024 -0.107,-0.036 -0.147,-0.036c-0.061,0 -0.091,0.017 -0.091,0.052c0,0.017 0.008,0.031 0.024,0.043c0.016,0.012 0.05,0.028 0.103,0.048c0.045,0.017 0.077,0.033 0.097,0.047c0.02,0.015 0.035,0.031 0.045,0.05c0.01,0.019 0.015,0.041 0.015,0.067Z" style="fill:#333;fill-rule:nonzero;"/>
                </g>
                <g transform="matrix(30.0849,0,0,30.0849,1145.19,305.775)">
                    <path d="M0.277,-0.274c0,0.086 -0.013,0.165 -0.038,0.239c-0.025,0.074 -0.062,0.139 -0.109,0.193l-0.099,0c0.045,-0.061 0.079,-0.128 0.103,-0.202c0.024,-0.075 0.036,-0.151 0.036,-0.231c0,-0.08 -0.012,-0.157 -0.036,-0.233c-0.024,-0.076 -0.059,-0.144 -0.104,-0.206l0.1,0c0.048,0.057 0.084,0.123 0.109,0.199c0.025,0.075 0.038,0.155 0.038,0.241Z" style="fill:#333;fill-rule:nonzero;"/>
                </g>
            </g>
            <g transform="matrix(2.65847,0,0,1.91531,-1930.67,146.611)">
                <g transform="matrix(30.0849,0,0,30.0849,999.19,305.775)">
                    <path d="M0.356,0.01c-0.068,0 -0.121,-0.025 -0.159,-0.074l-0.007,0c0.004,0.046 0.007,0.073 0.007,0.083l0,0.221l-0.115,0l0,-0.78l0.093,0c0.002,0.01 0.008,0.034 0.016,0.072l0.006,0c0.036,-0.054 0.089,-0.082 0.161,-0.082c0.067,0 0.12,0.025 0.157,0.073c0.038,0.049 0.057,0.118 0.057,0.206c0,0.088 -0.019,0.157 -0.058,0.207c-0.038,0.049 -0.091,0.074 -0.158,0.074Zm-0.028,-0.466c-0.045,0 -0.079,0.013 -0.1,0.04c-0.021,0.027 -0.031,0.069 -0.031,0.128l0,0.017c0,0.066 0.01,0.113 0.031,0.143c0.021,0.029 0.055,0.044 0.102,0.044c0.04,0 0.07,-0.016 0.092,-0.049c0.021,-0.032 0.032,-0.079 0.032,-0.139c0,-0.061 -0.011,-0.106 -0.032,-0.137c-0.021,-0.032 -0.053,-0.047 -0.094,-0.047Z" style="fill:#d87843;fill-rule:nonzero;"/>
                </g>
                <g transform="matrix(30.0849,0,0,30.0849,1017.93,305.775)">
                    <path d="M0.42,0l-0.023,-0.075l-0.004,0c-0.026,0.033 -0.052,0.055 -0.079,0.067c-0.026,0.012 -0.06,0.018 -0.101,0.018c-0.053,0 -0.095,-0.015 -0.124,-0.043c-0.03,-0.029 -0.045,-0.069 -0.045,-0.122c0,-0.055 0.021,-0.097 0.062,-0.126c0.041,-0.028 0.104,-0.044 0.189,-0.046l0.093,-0.003l0,-0.029c0,-0.034 -0.008,-0.06 -0.024,-0.077c-0.016,-0.017 -0.041,-0.026 -0.075,-0.026c-0.028,0 -0.054,0.004 -0.08,0.012c-0.025,0.008 -0.049,0.018 -0.073,0.029l-0.037,-0.082c0.029,-0.015 0.061,-0.027 0.096,-0.035c0.035,-0.008 0.068,-0.012 0.099,-0.012c0.069,0 0.12,0.015 0.155,0.045c0.035,0.03 0.053,0.077 0.053,0.141l0,0.364l-0.082,0Zm-0.171,-0.078c0.042,0 0.075,-0.012 0.1,-0.035c0.026,-0.023 0.038,-0.056 0.038,-0.098l0,-0.047l-0.069,0.003c-0.054,0.002 -0.093,0.011 -0.118,0.027c-0.025,0.016 -0.037,0.041 -0.037,0.074c0,0.024 0.007,0.043 0.022,0.056c0.014,0.013 0.035,0.02 0.064,0.02Z" style="fill:#d87843;fill-rule:nonzero;"/>
                </g>
                <g transform="matrix(30.0849,0,0,30.0849,1035.39,305.775)">
                    <path d="M0.3,0.01c-0.082,0 -0.144,-0.024 -0.186,-0.072c-0.043,-0.047 -0.064,-0.116 -0.064,-0.205c0,-0.091 0.022,-0.161 0.066,-0.21c0.045,-0.048 0.109,-0.073 0.193,-0.073c0.057,0 0.108,0.011 0.154,0.032l-0.035,0.092c-0.048,-0.019 -0.088,-0.028 -0.12,-0.028c-0.093,0 -0.14,0.062 -0.14,0.186c0,0.06 0.012,0.106 0.035,0.136c0.023,0.031 0.057,0.046 0.102,0.046c0.051,0 0.1,-0.013 0.145,-0.038l0,0.1c-0.02,0.012 -0.042,0.021 -0.065,0.026c-0.024,0.005 -0.052,0.008 -0.085,0.008Z" style="fill:#d87843;fill-rule:nonzero;"/>
                </g>
                <g transform="matrix(30.0849,0,0,30.0849,1050.28,305.775)">
                    <path d="M0.193,-0.285l0.065,-0.081l0.163,-0.174l0.132,0l-0.217,0.232l0.231,0.308l-0.135,0l-0.173,-0.237l-0.063,0.052l0,0.185l-0.114,0l0,-0.76l0.114,0l0,0.371l-0.006,0.104l0.003,0Z" style="fill:#d87843;fill-rule:nonzero;"/>
                </g>
                <g transform="matrix(30.0849,0,0,30.0849,1067.48,305.775)">
                    <path d="M0.42,0l-0.023,-0.075l-0.004,0c-0.026,0.033 -0.052,0.055 -0.079,0.067c-0.026,0.012 -0.06,0.018 -0.101,0.018c-0.053,0 -0.095,-0.015 -0.124,-0.043c-0.03,-0.029 -0.045,-0.069 -0.045,-0.122c0,-0.055 0.021,-0.097 0.062,-0.126c0.041,-0.028 0.104,-0.044 0.189,-0.046l0.093,-0.003l0,-0.029c0,-0.034 -0.008,-0.06 -0.024,-0.077c-0.016,-0.017 -0.041,-0.026 -0.075,-0.026c-0.028,0 -0.054,0.004 -0.08,0.012c-0.025,0.008 -0.049,0.018 -0.073,0.029l-0.037,-0.082c0.029,-0.015 0.061,-0.027 0.096,-0.035c0.035,-0.008 0.068,-0.012 0.099,-0.012c0.069,0 0.12,0.015 0.155,0.045c0.035,0.03 0.053,0.077 0.053,0.141l0,0.364l-0.082,0Zm-0.171,-0.078c0.042,0 0.075,-0.012 0.1,-0.035c0.026,-0.023 0.038,-0.056 0.038,-0.098l0,-0.047l-0.069,0.003c-0.054,0.002 -0.093,0.011 -0.118,0.027c-0.025,0.016 -0.037,0.041 -0.037,0.074c0,0.024 0.007,0.043 0.022,0.056c0.014,0.013 0.035,0.02 0.064,0.02Z" style="fill:#d87843;fill-rule:nonzero;"/>
                </g>
                <g transform="matrix(30.0849,0,0,30.0849,1084.94,305.775)">
                    <path d="M0.538,-0.54l0,0.063l-0.092,0.017c0.008,0.011 0.015,0.025 0.021,0.042c0.005,0.017 0.008,0.034 0.008,0.053c0,0.055 -0.019,0.099 -0.058,0.131c-0.038,0.032 -0.091,0.048 -0.158,0.048c-0.017,0 -0.033,-0.001 -0.047,-0.004c-0.025,0.015 -0.037,0.033 -0.037,0.054c0,0.012 0.006,0.021 0.017,0.028c0.012,0.006 0.033,0.009 0.064,0.009l0.094,0c0.06,0 0.105,0.013 0.136,0.038c0.031,0.025 0.046,0.062 0.046,0.11c0,0.061 -0.025,0.108 -0.075,0.141c-0.051,0.034 -0.124,0.05 -0.219,0.05c-0.074,0 -0.13,-0.013 -0.169,-0.039c-0.038,-0.026 -0.058,-0.063 -0.058,-0.111c0,-0.033 0.011,-0.061 0.032,-0.084c0.021,-0.023 0.05,-0.038 0.088,-0.047c-0.015,-0.007 -0.028,-0.017 -0.038,-0.032c-0.01,-0.014 -0.015,-0.029 -0.015,-0.045c0,-0.02 0.006,-0.037 0.017,-0.051c0.012,-0.014 0.029,-0.028 0.051,-0.042c-0.028,-0.012 -0.051,-0.032 -0.068,-0.059c-0.018,-0.027 -0.026,-0.059 -0.026,-0.095c0,-0.059 0.018,-0.104 0.055,-0.136c0.037,-0.033 0.09,-0.049 0.158,-0.049c0.015,0 0.031,0.001 0.048,0.003c0.017,0.002 0.03,0.005 0.038,0.007l0.187,0Zm-0.424,0.624c0,0.025 0.011,0.044 0.033,0.057c0.023,0.013 0.054,0.02 0.094,0.02c0.063,0 0.109,-0.009 0.14,-0.027c0.03,-0.018 0.046,-0.041 0.046,-0.071c0,-0.023 -0.009,-0.04 -0.025,-0.05c-0.017,-0.01 -0.048,-0.015 -0.094,-0.015l-0.087,0c-0.033,0 -0.059,0.008 -0.078,0.023c-0.02,0.016 -0.029,0.037 -0.029,0.063Zm0.049,-0.449c0,0.034 0.009,0.06 0.026,0.078c0.018,0.018 0.043,0.027 0.075,0.027c0.067,0 0.1,-0.035 0.1,-0.106c0,-0.035 -0.008,-0.062 -0.025,-0.082c-0.016,-0.019 -0.041,-0.028 -0.075,-0.028c-0.033,0 -0.058,0.009 -0.075,0.028c-0.017,0.019 -0.026,0.047 -0.026,0.083Z" style="fill:#d87843;fill-rule:nonzero;"/>
                </g>
                <g transform="matrix(30.0849,0,0,30.0849,1101.67,305.775)">
                    <path d="M0.318,0.01c-0.084,0 -0.15,-0.025 -0.197,-0.074c-0.048,-0.049 -0.071,-0.116 -0.071,-0.202c0,-0.088 0.022,-0.158 0.066,-0.208c0.044,-0.051 0.104,-0.076 0.181,-0.076c0.071,0 0.127,0.022 0.169,0.065c0.041,0.043 0.062,0.103 0.062,0.179l0,0.062l-0.36,0c0.002,0.052 0.016,0.093 0.042,0.121c0.027,0.028 0.065,0.042 0.113,0.042c0.032,0 0.062,-0.003 0.089,-0.009c0.028,-0.006 0.057,-0.016 0.089,-0.03l0,0.093c-0.028,0.013 -0.056,0.023 -0.085,0.028c-0.029,0.006 -0.061,0.009 -0.098,0.009Zm-0.021,-0.473c-0.037,0 -0.066,0.012 -0.088,0.035c-0.022,0.023 -0.035,0.057 -0.039,0.101l0.245,0c-0.001,-0.045 -0.011,-0.079 -0.032,-0.101c-0.021,-0.023 -0.05,-0.035 -0.086,-0.035Z" style="fill:#d87843;fill-rule:nonzero;"/>
                </g>
                <g transform="matrix(30.0849,0,0,30.0849,1119,305.775)">
                    <path d="M0.445,-0.154c0,0.053 -0.019,0.093 -0.058,0.122c-0.038,0.028 -0.093,0.042 -0.165,0.042c-0.072,0 -0.13,-0.011 -0.173,-0.033l0,-0.099c0.063,0.029 0.122,0.044 0.177,0.044c0.071,0 0.106,-0.021 0.106,-0.064c0,-0.014 -0.004,-0.025 -0.012,-0.034c-0.007,-0.009 -0.02,-0.019 -0.038,-0.029c-0.018,-0.009 -0.043,-0.02 -0.075,-0.033c-0.062,-0.024 -0.104,-0.048 -0.126,-0.072c-0.022,-0.024 -0.033,-0.055 -0.033,-0.094c0,-0.046 0.018,-0.082 0.056,-0.107c0.037,-0.026 0.088,-0.039 0.152,-0.039c0.063,0 0.123,0.013 0.18,0.039l-0.037,0.086c-0.058,-0.024 -0.107,-0.036 -0.147,-0.036c-0.061,0 -0.091,0.017 -0.091,0.052c0,0.017 0.008,0.031 0.024,0.043c0.016,0.012 0.05,0.028 0.103,0.048c0.045,0.017 0.077,0.033 0.097,0.047c0.02,0.015 0.035,0.031 0.045,0.05c0.01,0.019 0.015,0.041 0.015,0.067Z" style="fill:#d87843;fill-rule:nonzero;"/>
                </g>
            </g>
            <g transform="matrix(2.65847,0,0,1.91531,-1930.28,-201.435)">
                <g transform="matrix(38.002,0,0,38.002,1026.46,305.775)">
                    <path d="M0.3,0.01c-0.082,0 -0.144,-0.024 -0.186,-0.072c-0.043,-0.047 -0.064,-0.116 -0.064,-0.205c0,-0.091 0.022,-0.161 0.066,-0.21c0.045,-0.048 0.109,-0.073 0.193,-0.073c0.057,0 0.108,0.011 0.154,0.032l-0.035,0.092c-0.048,-0.019 -0.088,-0.028 -0.12,-0.028c-0.093,0 -0.14,0.062 -0.14,0.186c0,0.06 0.012,0.106 0.035,0.136c0.023,0.031 0.057,0.046 0.102,0.046c0.051,0 0.1,-0.013 0.145,-0.038l0,0.1c-0.02,0.012 -0.042,0.021 -0.065,0.026c-0.024,0.005 -0.052,0.008 -0.085,0.008Z" style="fill:#d87843;fill-rule:nonzero;"/>
                </g>
                <g transform="matrix(38.002,0,0,38.002,1045.27,305.775)">
                    <path d="M0.557,0l-0.115,0l0,-0.332c0,-0.042 -0.008,-0.073 -0.025,-0.093c-0.017,-0.021 -0.044,-0.031 -0.08,-0.031c-0.048,0 -0.084,0.014 -0.106,0.043c-0.023,0.029 -0.034,0.077 -0.034,0.145l0,0.268l-0.115,0l0,-0.76l0.115,0l0,0.193c0,0.031 -0.002,0.064 -0.006,0.099l0.007,0c0.016,-0.026 0.038,-0.046 0.065,-0.06c0.028,-0.015 0.061,-0.022 0.098,-0.022c0.131,0 0.196,0.066 0.196,0.198l0,0.352Z" style="fill:#d87843;fill-rule:nonzero;"/>
                </g>
                <g transform="matrix(38.002,0,0,38.002,1069.4,305.775)">
                    <path d="M0.42,0l-0.023,-0.075l-0.004,0c-0.026,0.033 -0.052,0.055 -0.079,0.067c-0.026,0.012 -0.06,0.018 -0.101,0.018c-0.053,0 -0.095,-0.015 -0.124,-0.043c-0.03,-0.029 -0.045,-0.069 -0.045,-0.122c0,-0.055 0.021,-0.097 0.062,-0.126c0.041,-0.028 0.104,-0.044 0.189,-0.046l0.093,-0.003l0,-0.029c0,-0.034 -0.008,-0.06 -0.024,-0.077c-0.016,-0.017 -0.041,-0.026 -0.075,-0.026c-0.028,0 -0.054,0.004 -0.08,0.012c-0.025,0.008 -0.049,0.018 -0.073,0.029l-0.037,-0.082c0.029,-0.015 0.061,-0.027 0.096,-0.035c0.035,-0.008 0.068,-0.012 0.099,-0.012c0.069,0 0.12,0.015 0.155,0.045c0.035,0.03 0.053,0.077 0.053,0.141l0,0.364l-0.082,0Zm-0.171,-0.078c0.042,0 0.075,-0.012 0.1,-0.035c0.026,-0.023 0.038,-0.056 0.038,-0.098l0,-0.047l-0.069,0.003c-0.054,0.002 -0.093,0.011 -0.118,0.027c-0.025,0.016 -0.037,0.041 -0.037,0.074c0,0.024 0.007,0.043 0.022,0.056c0.014,0.013 0.035,0.02 0.064,0.02Z" style="fill:#d87843;fill-rule:nonzero;"/>
                </g>
                <g transform="matrix(38.002,0,0,38.002,1091.44,305.775)">
                    <path d="M0.283,-0.083c0.028,0 0.056,-0.004 0.084,-0.013l0,0.086c-0.013,0.006 -0.029,0.01 -0.049,0.014c-0.02,0.004 -0.041,0.006 -0.062,0.006c-0.109,0 -0.163,-0.058 -0.163,-0.172l0,-0.291l-0.074,0l0,-0.051l0.079,-0.042l0.039,-0.114l0.071,0l0,0.12l0.154,0l0,0.087l-0.154,0l0,0.289c0,0.028 0.007,0.048 0.021,0.061c0.014,0.013 0.032,0.02 0.054,0.02Z" style="fill:#d87843;fill-rule:nonzero;"/>
                </g>
            </g>
            <g transform="matrix(6.47988,0,0,4.66846,-1992.41,-1237.24)">
                <g transform="matrix(18.6225,0,0,18.6225,412.047,300.824)">
                    <path d="M0.567,-0.498c0,0.074 -0.025,0.132 -0.073,0.171c-0.049,0.04 -0.119,0.06 -0.209,0.06l-0.074,0l0,0.267l-0.117,0l0,-0.714l0.206,0c0.089,0 0.156,0.018 0.2,0.055c0.045,0.036 0.067,0.09 0.067,0.161Zm-0.356,0.133l0.062,0c0.06,0 0.104,-0.011 0.132,-0.031c0.028,-0.021 0.042,-0.054 0.042,-0.098c0,-0.041 -0.013,-0.072 -0.038,-0.092c-0.025,-0.02 -0.064,-0.03 -0.117,-0.03l-0.081,0l0,0.251Z" style="fill:#333;fill-rule:nonzero;"/>
                </g>
                <g transform="matrix(18.6225,0,0,18.6225,423.504,300.824)">
                    <path d="M0.356,-0.55c0.023,0 0.042,0.002 0.057,0.005l-0.011,0.107c-0.016,-0.004 -0.033,-0.006 -0.051,-0.006c-0.046,0 -0.083,0.015 -0.111,0.045c-0.029,0.03 -0.043,0.069 -0.043,0.117l0,0.282l-0.115,0l0,-0.54l0.09,0l0.015,0.095l0.006,0c0.018,-0.032 0.041,-0.058 0.07,-0.076c0.029,-0.019 0.06,-0.029 0.093,-0.029Z" style="fill:#333;fill-rule:nonzero;"/>
                </g>
                <g transform="matrix(18.6225,0,0,18.6225,431.533,300.824)">
                    <path d="M0.561,-0.271c0,0.088 -0.023,0.157 -0.068,0.207c-0.045,0.049 -0.108,0.074 -0.189,0.074c-0.05,0 -0.095,-0.012 -0.134,-0.034c-0.038,-0.023 -0.068,-0.056 -0.089,-0.099c-0.021,-0.042 -0.031,-0.092 -0.031,-0.148c0,-0.088 0.022,-0.156 0.067,-0.205c0.045,-0.049 0.108,-0.074 0.19,-0.074c0.078,0 0.14,0.025 0.186,0.076c0.045,0.05 0.068,0.118 0.068,0.203Zm-0.393,0c0,0.125 0.046,0.187 0.138,0.187c0.091,0 0.137,-0.062 0.137,-0.187c0,-0.123 -0.046,-0.185 -0.138,-0.185c-0.048,0 -0.083,0.016 -0.105,0.048c-0.021,0.032 -0.032,0.077 -0.032,0.137Z" style="fill:#333;fill-rule:nonzero;"/>
                </g>
                <g transform="matrix(18.6225,0,0,18.6225,442.908,300.824)">
                    <path d="M0.027,0.24c-0.035,0 -0.063,-0.004 -0.086,-0.012l0,-0.091c0.022,0.006 0.045,0.009 0.068,0.009c0.049,0 0.073,-0.028 0.073,-0.083l0,-0.603l0.115,0l0,0.611c0,0.055 -0.015,0.098 -0.044,0.126c-0.029,0.029 -0.071,0.043 -0.126,0.043Zm0.048,-0.923c0,-0.021 0.006,-0.036 0.017,-0.047c0.011,-0.012 0.027,-0.017 0.048,-0.017c0.02,0 0.036,0.005 0.047,0.017c0.011,0.011 0.017,0.026 0.017,0.047c0,0.019 -0.006,0.035 -0.017,0.046c-0.011,0.011 -0.027,0.017 -0.047,0.017c-0.021,0 -0.037,-0.006 -0.048,-0.017c-0.011,-0.011 -0.017,-0.027 -0.017,-0.046Z" style="fill:#333;fill-rule:nonzero;"/>
                </g>
                <g transform="matrix(18.6225,0,0,18.6225,448.1,300.824)">
                    <path d="M0.318,0.01c-0.084,0 -0.15,-0.025 -0.197,-0.074c-0.048,-0.049 -0.071,-0.116 -0.071,-0.202c0,-0.088 0.022,-0.158 0.066,-0.208c0.044,-0.051 0.104,-0.076 0.181,-0.076c0.071,0 0.127,0.022 0.169,0.065c0.041,0.043 0.062,0.103 0.062,0.179l0,0.062l-0.36,0c0.002,0.052 0.016,0.093 0.042,0.121c0.027,0.028 0.065,0.042 0.113,0.042c0.032,0 0.062,-0.003 0.089,-0.009c0.028,-0.006 0.057,-0.016 0.089,-0.03l0,0.093c-0.028,0.013 -0.056,0.023 -0.085,0.028c-0.029,0.006 -0.061,0.009 -0.098,0.009Zm-0.021,-0.473c-0.037,0 -0.066,0.012 -0.088,0.035c-0.022,0.023 -0.035,0.057 -0.039,0.101l0.245,0c-0.001,-0.045 -0.011,-0.079 -0.032,-0.101c-0.021,-0.023 -0.05,-0.035 -0.086,-0.035Z" style="fill:#333;fill-rule:nonzero;"/>
                </g>
                <g transform="matrix(18.6225,0,0,18.6225,458.83,300.824)">
                    <path d="M0.3,0.01c-0.082,0 -0.144,-0.024 -0.186,-0.072c-0.043,-0.047 -0.064,-0.116 -0.064,-0.205c0,-0.091 0.022,-0.161 0.066,-0.21c0.045,-0.048 0.109,-0.073 0.193,-0.073c0.057,0 0.108,0.011 0.154,0.032l-0.035,0.092c-0.048,-0.019 -0.088,-0.028 -0.12,-0.028c-0.093,0 -0.14,0.062 -0.14,0.186c0,0.06 0.012,0.106 0.035,0.136c0.023,0.031 0.057,0.046 0.102,0.046c0.051,0 0.1,-0.013 0.145,-0.038l0,0.1c-0.02,0.012 -0.042,0.021 -0.065,0.026c-0.024,0.005 -0.052,0.008 -0.085,0.008Z" style="fill:#333;fill-rule:nonzero;"/>
                </g>
                <g transform="matrix(18.6225,0,0,18.6225,468.05,300.824)">
                    <path d="M0.283,-0.083c0.028,0 0.056,-0.004 0.084,-0.013l0,0.086c-0.013,0.006 -0.029,0.01 -0.049,0.014c-0.02,0.004 -0.041,0.006 -0.062,0.006c-0.109,0 -0.163,-0.058 -0.163,-0.172l0,-0.291l-0.074,0l0,-0.051l0.079,-0.042l0.039,-0.114l0.071,0l0,0.12l0.154,0l0,0.087l-0.154,0l0,0.289c0,0.028 0.007,0.048 0.021,0.061c0.014,0.013 0.032,0.02 0.054,0.02Z" style="fill:#333;fill-rule:nonzero;"/>
                </g>
                <g transform="matrix(18.6225,0,0,18.6225,480.208,300.824)">
                    <path d="M0.3,0.01c-0.082,0 -0.144,-0.024 -0.186,-0.072c-0.043,-0.047 -0.064,-0.116 -0.064,-0.205c0,-0.091 0.022,-0.161 0.066,-0.21c0.045,-0.048 0.109,-0.073 0.193,-0.073c0.057,0 0.108,0.011 0.154,0.032l-0.035,0.092c-0.048,-0.019 -0.088,-0.028 -0.12,-0.028c-0.093,0 -0.14,0.062 -0.14,0.186c0,0.06 0.012,0.106 0.035,0.136c0.023,0.031 0.057,0.046 0.102,0.046c0.051,0 0.1,-0.013 0.145,-0.038l0,0.1c-0.02,0.012 -0.042,0.021 -0.065,0.026c-0.024,0.005 -0.052,0.008 -0.085,0.008Z" style="fill:#333;fill-rule:nonzero;"/>
                </g>
                <g transform="matrix(18.6225,0,0,18.6225,489.428,300.824)">
                    <path d="M0.557,0l-0.115,0l0,-0.332c0,-0.042 -0.008,-0.073 -0.025,-0.093c-0.017,-0.021 -0.044,-0.031 -0.08,-0.031c-0.048,0 -0.084,0.014 -0.106,0.043c-0.023,0.029 -0.034,0.077 -0.034,0.145l0,0.268l-0.115,0l0,-0.76l0.115,0l0,0.193c0,0.031 -0.002,0.064 -0.006,0.099l0.007,0c0.016,-0.026 0.038,-0.046 0.065,-0.06c0.028,-0.015 0.061,-0.022 0.098,-0.022c0.131,0 0.196,0.066 0.196,0.198l0,0.352Z" style="fill:#333;fill-rule:nonzero;"/>
                </g>
                <g transform="matrix(18.6225,0,0,18.6225,501.249,300.824)">
                    <path d="M0.42,0l-0.023,-0.075l-0.004,0c-0.026,0.033 -0.052,0.055 -0.079,0.067c-0.026,0.012 -0.06,0.018 -0.101,0.018c-0.053,0 -0.095,-0.015 -0.124,-0.043c-0.03,-0.029 -0.045,-0.069 -0.045,-0.122c0,-0.055 0.021,-0.097 0.062,-0.126c0.041,-0.028 0.104,-0.044 0.189,-0.046l0.093,-0.003l0,-0.029c0,-0.034 -0.008,-0.06 -0.024,-0.077c-0.016,-0.017 -0.041,-0.026 -0.075,-0.026c-0.028,0 -0.054,0.004 -0.08,0.012c-0.025,0.008 -0.049,0.018 -0.073,0.029l-0.037,-0.082c0.029,-0.015 0.061,-0.027 0.096,-0.035c0.035,-0.008 0.068,-0.012 0.099,-0.012c0.069,0 0.12,0.015 0.155,0.045c0.035,0.03 0.053,0.077 0.053,0.141l0,0.364l-0.082,0Zm-0.171,-0.078c0.042,0 0.075,-0.012 0.1,-0.035c0.026,-0.023 0.038,-0.056 0.038,-0.098l0,-0.047l-0.069,0.003c-0.054,0.002 -0.093,0.011 -0.118,0.027c-0.025,0.016 -0.037,0.041 -0.037,0.074c0,0.024 0.007,0.043 0.022,0.056c0.014,0.013 0.035,0.02 0.064,0.02Z" style="fill:#333;fill-rule:nonzero;"/>
                </g>
                <g transform="matrix(18.6225,0,0,18.6225,512.051,300.824)">
                    <path d="M0.283,-0.083c0.028,0 0.056,-0.004 0.084,-0.013l0,0.086c-0.013,0.006 -0.029,0.01 -0.049,0.014c-0.02,0.004 -0.041,0.006 -0.062,0.006c-0.109,0 -0.163,-0.058 -0.163,-0.172l0,-0.291l-0.074,0l0,-0.051l0.079,-0.042l0.039,-0.114l0.071,0l0,0.12l0.154,0l0,0.087l-0.154,0l0,0.289c0,0.028 0.007,0.048 0.021,0.061c0.014,0.013 0.032,0.02 0.054,0.02Z" style="fill:#333;fill-rule:nonzero;"/>
                </g>
                <g transform="matrix(18.6225,0,0,18.6225,377.916,319.447)">
                    <path d="M0.525,0l-0.07,-0.252c-0.008,-0.027 -0.024,-0.089 -0.046,-0.186l-0.004,0c-0.019,0.088 -0.034,0.15 -0.045,0.187l-0.072,0.251l-0.127,0l-0.151,-0.54l0.117,0l0.069,0.266c0.015,0.066 0.026,0.122 0.033,0.169l0.003,0c0.003,-0.024 0.008,-0.051 0.015,-0.082c0.006,-0.031 0.012,-0.054 0.017,-0.069l0.082,-0.284l0.126,0l0.08,0.284c0.005,0.016 0.011,0.041 0.018,0.073c0.007,0.033 0.012,0.059 0.013,0.077l0.004,0c0.005,-0.04 0.016,-0.096 0.034,-0.168l0.07,-0.266l0.115,0l-0.152,0.54l-0.129,0Z" style="fill:#333;fill-rule:nonzero;"/>
                </g>
                <g transform="matrix(18.6225,0,0,18.6225,393.129,319.447)">
                    <path d="M0.197,0l-0.115,0l0,-0.54l0.115,0l0,0.54Zm-0.122,-0.683c0,-0.021 0.006,-0.036 0.017,-0.047c0.011,-0.012 0.027,-0.017 0.048,-0.017c0.02,0 0.036,0.005 0.047,0.017c0.011,0.011 0.017,0.026 0.017,0.047c0,0.019 -0.006,0.035 -0.017,0.046c-0.011,0.011 -0.027,0.017 -0.047,0.017c-0.021,0 -0.037,-0.006 -0.048,-0.017c-0.011,-0.011 -0.017,-0.027 -0.017,-0.046Z" style="fill:#333;fill-rule:nonzero;"/>
                </g>
                <g transform="matrix(18.6225,0,0,18.6225,398.321,319.447)">
                    <path d="M0.283,-0.083c0.028,0 0.056,-0.004 0.084,-0.013l0,0.086c-0.013,0.006 -0.029,0.01 -0.049,0.014c-0.02,0.004 -0.041,0.006 -0.062,0.006c-0.109,0 -0.163,-0.058 -0.163,-0.172l0,-0.291l-0.074,0l0,-0.051l0.079,-0.042l0.039,-0.114l0.071,0l0,0.12l0.154,0l0,0.087l-0.154,0l0,0.289c0,0.028 0.007,0.048 0.021,0.061c0.014,0.013 0.032,0.02 0.054,0.02Z" style="fill:#333;fill-rule:nonzero;"/>
                </g>
                <g transform="matrix(18.6225,0,0,18.6225,405.641,319.447)">
                    <path d="M0.557,0l-0.115,0l0,-0.332c0,-0.042 -0.008,-0.073 -0.025,-0.093c-0.017,-0.021 -0.044,-0.031 -0.08,-0.031c-0.048,0 -0.084,0.014 -0.106,0.043c-0.023,0.029 -0.034,0.077 -0.034,0.145l0,0.268l-0.115,0l0,-0.76l0.115,0l0,0.193c0,0.031 -0.002,0.064 -0.006,0.099l0.007,0c0.016,-0.026 0.038,-0.046 0.065,-0.06c0.028,-0.015 0.061,-0.022 0.098,-0.022c0.131,0 0.196,0.066 0.196,0.198l0,0.352Z" style="fill:#333;fill-rule:nonzero;"/>
                </g>
                <g transform="matrix(18.6225,0,0,18.6225,422.299,319.447)">
                    <path d="M0.211,-0.382l0.081,0c0.054,0 0.094,-0.01 0.118,-0.03c0.025,-0.02 0.037,-0.05 0.037,-0.09c0,-0.04 -0.013,-0.069 -0.04,-0.087c-0.026,-0.017 -0.066,-0.026 -0.119,-0.026l-0.077,0l0,0.233Zm0,0.097l0,0.285l-0.117,0l0,-0.714l0.202,0c0.092,0 0.16,0.017 0.204,0.052c0.045,0.034 0.067,0.086 0.067,0.156c0,0.089 -0.046,0.152 -0.139,0.19l0.202,0.316l-0.133,0l-0.171,-0.285l-0.115,0Z" style="fill:#333;fill-rule:nonzero;"/>
                </g>
                <g transform="matrix(18.6225,0,0,18.6225,434.202,319.447)">
                    <path d="M0.318,0.01c-0.084,0 -0.15,-0.025 -0.197,-0.074c-0.048,-0.049 -0.071,-0.116 -0.071,-0.202c0,-0.088 0.022,-0.158 0.066,-0.208c0.044,-0.051 0.104,-0.076 0.181,-0.076c0.071,0 0.127,0.022 0.169,0.065c0.041,0.043 0.062,0.103 0.062,0.179l0,0.062l-0.36,0c0.002,0.052 0.016,0.093 0.042,0.121c0.027,0.028 0.065,0.042 0.113,0.042c0.032,0 0.062,-0.003 0.089,-0.009c0.028,-0.006 0.057,-0.016 0.089,-0.03l0,0.093c-0.028,0.013 -0.056,0.023 -0.085,0.028c-0.029,0.006 -0.061,0.009 -0.098,0.009Zm-0.021,-0.473c-0.037,0 -0.066,0.012 -0.088,0.035c-0.022,0.023 -0.035,0.057 -0.039,0.101l0.245,0c-0.001,-0.045 -0.011,-0.079 -0.032,-0.101c-0.021,-0.023 -0.05,-0.035 -0.086,-0.035Z" style="fill:#333;fill-rule:nonzero;"/>
                </g>
                <g transform="matrix(18.6225,0,0,18.6225,444.931,319.447)">
                    <path d="M0.42,0l-0.023,-0.075l-0.004,0c-0.026,0.033 -0.052,0.055 -0.079,0.067c-0.026,0.012 -0.06,0.018 -0.101,0.018c-0.053,0 -0.095,-0.015 -0.124,-0.043c-0.03,-0.029 -0.045,-0.069 -0.045,-0.122c0,-0.055 0.021,-0.097 0.062,-0.126c0.041,-0.028 0.104,-0.044 0.189,-0.046l0.093,-0.003l0,-0.029c0,-0.034 -0.008,-0.06 -0.024,-0.077c-0.016,-0.017 -0.041,-0.026 -0.075,-0.026c-0.028,0 -0.054,0.004 -0.08,0.012c-0.025,0.008 -0.049,0.018 -0.073,0.029l-0.037,-0.082c0.029,-0.015 0.061,-0.027 0.096,-0.035c0.035,-0.008 0.068,-0.012 0.099,-0.012c0.069,0 0.12,0.015 0.155,0.045c0.035,0.03 0.053,0.077 0.053,0.141l0,0.364l-0.082,0Zm-0.171,-0.078c0.042,0 0.075,-0.012 0.1,-0.035c0.026,-0.023 0.038,-0.056 0.038,-0.098l0,-0.047l-0.069,0.003c-0.054,0.002 -0.093,0.011 -0.118,0.027c-0.025,0.016 -0.037,0.041 -0.037,0.074c0,0.024 0.007,0.043 0.022,0.056c0.014,0.013 0.035,0.02 0.064,0.02Z" style="fill:#333;fill-rule:nonzero;"/>
                </g>
                <g transform="matrix(18.6225,0,0,18.6225,455.734,319.447)">
                    <path d="M0.3,0.01c-0.082,0 -0.144,-0.024 -0.186,-0.072c-0.043,-0.047 -0.064,-0.116 -0.064,-0.205c0,-0.091 0.022,-0.161 0.066,-0.21c0.045,-0.048 0.109,-0.073 0.193,-0.073c0.057,0 0.108,0.011 0.154,0.032l-0.035,0.092c-0.048,-0.019 -0.088,-0.028 -0.12,-0.028c-0.093,0 -0.14,0.062 -0.14,0.186c0,0.06 0.012,0.106 0.035,0.136c0.023,0.031 0.057,0.046 0.102,0.046c0.051,0 0.1,-0.013 0.145,-0.038l0,0.1c-0.02,0.012 -0.042,0.021 -0.065,0.026c-0.024,0.005 -0.052,0.008 -0.085,0.008Z" style="fill:#333;fill-rule:nonzero;"/>
                </g>
                <g transform="matrix(18.6225,0,0,18.6225,464.954,319.447)">
                    <path d="M0.283,-0.083c0.028,0 0.056,-0.004 0.084,-0.013l0,0.086c-0.013,0.006 -0.029,0.01 -0.049,0.014c-0.02,0.004 -0.041,0.006 -0.062,0.006c-0.109,0 -0.163,-0.058 -0.163,-0.172l0,-0.291l-0.074,0l0,-0.051l0.079,-0.042l0.039,-0.114l0.071,0l0,0.12l0.154,0l0,0.087l-0.154,0l0,0.289c0,0.028 0.007,0.048 0.021,0.061c0.014,0.013 0.032,0.02 0.054,0.02Z" style="fill:#333;fill-rule:nonzero;"/>
                </g>
                <g transform="matrix(18.6225,0,0,18.6225,477.112,319.447)">
                    <path d="M0.525,0l-0.07,-0.252c-0.008,-0.027 -0.024,-0.089 -0.046,-0.186l-0.004,0c-0.019,0.088 -0.034,0.15 -0.045,0.187l-0.072,0.251l-0.127,0l-0.151,-0.54l0.117,0l0.069,0.266c0.015,0.066 0.026,0.122 0.033,0.169l0.003,0c0.003,-0.024 0.008,-0.051 0.015,-0.082c0.006,-0.031 0.012,-0.054 0.017,-0.069l0.082,-0.284l0.126,0l0.08,0.284c0.005,0.016 0.011,0.041 0.018,0.073c0.007,0.033 0.012,0.059 0.013,0.077l0.004,0c0.005,-0.04 0.016,-0.096 0.034,-0.168l0.07,-0.266l0.115,0l-0.152,0.54l-0.129,0Z" style="fill:#333;fill-rule:nonzero;"/>
                </g>
                <g transform="matrix(18.6225,0,0,18.6225,492.324,319.447)">
                    <path d="M0.318,0.01c-0.084,0 -0.15,-0.025 -0.197,-0.074c-0.048,-0.049 -0.071,-0.116 -0.071,-0.202c0,-0.088 0.022,-0.158 0.066,-0.208c0.044,-0.051 0.104,-0.076 0.181,-0.076c0.071,0 0.127,0.022 0.169,0.065c0.041,0.043 0.062,0.103 0.062,0.179l0,0.062l-0.36,0c0.002,0.052 0.016,0.093 0.042,0.121c0.027,0.028 0.065,0.042 0.113,0.042c0.032,0 0.062,-0.003 0.089,-0.009c0.028,-0.006 0.057,-0.016 0.089,-0.03l0,0.093c-0.028,0.013 -0.056,0.023 -0.085,0.028c-0.029,0.006 -0.061,0.009 -0.098,0.009Zm-0.021,-0.473c-0.037,0 -0.066,0.012 -0.088,0.035c-0.022,0.023 -0.035,0.057 -0.039,0.101l0.245,0c-0.001,-0.045 -0.011,-0.079 -0.032,-0.101c-0.021,-0.023 -0.05,-0.035 -0.086,-0.035Z" style="fill:#333;fill-rule:nonzero;"/>
                </g>
                <g transform="matrix(18.6225,0,0,18.6225,503.054,319.447)">
                    <path d="M0.358,-0.55c0.067,0 0.12,0.025 0.157,0.073c0.038,0.049 0.057,0.118 0.057,0.206c0,0.089 -0.019,0.157 -0.057,0.207c-0.038,0.049 -0.091,0.074 -0.159,0.074c-0.068,0 -0.121,-0.025 -0.159,-0.074l-0.008,0l-0.021,0.064l-0.086,0l0,-0.76l0.115,0l0,0.181c0,0.013 -0.001,0.033 -0.002,0.059c-0.001,0.027 -0.002,0.044 -0.003,0.051l0.005,0c0.036,-0.054 0.09,-0.081 0.161,-0.081Zm-0.03,0.094c-0.046,0 -0.079,0.014 -0.1,0.041c-0.02,0.027 -0.031,0.072 -0.031,0.136l0,0.008c0,0.066 0.01,0.113 0.031,0.143c0.021,0.029 0.055,0.044 0.102,0.044c0.041,0 0.072,-0.016 0.093,-0.048c0.021,-0.033 0.031,-0.079 0.031,-0.14c0,-0.123 -0.042,-0.184 -0.126,-0.184Z" style="fill:#333;fill-rule:nonzero;"/>
                </g>
                <g transform="matrix(18.6225,0,0,18.6225,519.494,319.447)">
                    <path d="M0.42,0l-0.023,-0.075l-0.004,0c-0.026,0.033 -0.052,0.055 -0.079,0.067c-0.026,0.012 -0.06,0.018 -0.101,0.018c-0.053,0 -0.095,-0.015 -0.124,-0.043c-0.03,-0.029 -0.045,-0.069 -0.045,-0.122c0,-0.055 0.021,-0.097 0.062,-0.126c0.041,-0.028 0.104,-0.044 0.189,-0.046l0.093,-0.003l0,-0.029c0,-0.034 -0.008,-0.06 -0.024,-0.077c-0.016,-0.017 -0.041,-0.026 -0.075,-0.026c-0.028,0 -0.054,0.004 -0.08,0.012c-0.025,0.008 -0.049,0.018 -0.073,0.029l-0.037,-0.082c0.029,-0.015 0.061,-0.027 0.096,-0.035c0.035,-0.008 0.068,-0.012 0.099,-0.012c0.069,0 0.12,0.015 0.155,0.045c0.035,0.03 0.053,0.077 0.053,0.141l0,0.364l-0.082,0Zm-0.171,-0.078c0.042,0 0.075,-0.012 0.1,-0.035c0.026,-0.023 0.038,-0.056 0.038,-0.098l0,-0.047l-0.069,0.003c-0.054,0.002 -0.093,0.011 -0.118,0.027c-0.025,0.016 -0.037,0.041 -0.037,0.074c0,0.024 0.007,0.043 0.022,0.056c0.014,0.013 0.035,0.02 0.064,0.02Z" style="fill:#333;fill-rule:nonzero;"/>
                </g>
                <g transform="matrix(18.6225,0,0,18.6225,530.296,319.447)">
                    <path d="M0.356,0.01c-0.068,0 -0.121,-0.025 -0.159,-0.074l-0.007,0c0.004,0.046 0.007,0.073 0.007,0.083l0,0.221l-0.115,0l0,-0.78l0.093,0c0.002,0.01 0.008,0.034 0.016,0.072l0.006,0c0.036,-0.054 0.089,-0.082 0.161,-0.082c0.067,0 0.12,0.025 0.157,0.073c0.038,0.049 0.057,0.118 0.057,0.206c0,0.088 -0.019,0.157 -0.058,0.207c-0.038,0.049 -0.091,0.074 -0.158,0.074Zm-0.028,-0.466c-0.045,0 -0.079,0.013 -0.1,0.04c-0.021,0.027 -0.031,0.069 -0.031,0.128l0,0.017c0,0.066 0.01,0.113 0.031,0.143c0.021,0.029 0.055,0.044 0.102,0.044c0.04,0 0.07,-0.016 0.092,-0.049c0.021,-0.032 0.032,-0.079 0.032,-0.139c0,-0.061 -0.011,-0.106 -0.032,-0.137c-0.021,-0.032 -0.053,-0.047 -0.094,-0.047Z" style="fill:#333;fill-rule:nonzero;"/>
                </g>
                <g transform="matrix(18.6225,0,0,18.6225,541.899,319.447)">
                    <path d="M0.356,0.01c-0.068,0 -0.121,-0.025 -0.159,-0.074l-0.007,0c0.004,0.046 0.007,0.073 0.007,0.083l0,0.221l-0.115,0l0,-0.78l0.093,0c0.002,0.01 0.008,0.034 0.016,0.072l0.006,0c0.036,-0.054 0.089,-0.082 0.161,-0.082c0.067,0 0.12,0.025 0.157,0.073c0.038,0.049 0.057,0.118 0.057,0.206c0,0.088 -0.019,0.157 -0.058,0.207c-0.038,0.049 -0.091,0.074 -0.158,0.074Zm-0.028,-0.466c-0.045,0 -0.079,0.013 -0.1,0.04c-0.021,0.027 -0.031,0.069 -0.031,0.128l0,0.017c0,0.066 0.01,0.113 0.031,0.143c0.021,0.029 0.055,0.044 0.102,0.044c0.04,0 0.07,-0.016 0.092,-0.049c0.021,-0.032 0.032,-0.079 0.032,-0.139c0,-0.061 -0.011,-0.106 -0.032,-0.137c-0.021,-0.032 -0.053,-0.047 -0.094,-0.047Z" style="fill:#333;fill-rule:nonzero;"/>
                </g>
            </g>
        </g>
    </g>
</svg>
